<svg xmlns="http://www.w3.org/2000/svg" viewBox="0 0 56 56">
  <path d="M4.64 4h42.72A3.64 3.64 0 0151 7.64V42a4 4 0 01-4 4H5a4 4 0 01-4-4V7.64A3.64 3.64 0 014.64 4z" fill="none"/>
  <path d="M47 47H5a4.78 4.78 0 01-5-4.74V7.63A4.73 4.73 0 015 3h42a4.73 4.73 0 015 4.63v34.63A4.78 4.78 0 0147 47zM5 5a2.73 2.73 0 00-3 2.63v34.63A2.82 2.82 0 005 45h42a2.82 2.82 0 003-2.74V7.63A2.73 2.73 0 0047 5z" fill="#7e94aa"/>
  <path d="M4.62 1h42.26A4.12 4.12 0 0151 5.12V12H1V4.62A3.62 3.62 0 014.62 1z" fill="#fbd88e"/>
  <path d="M52 13H0V4.62A4.76 4.76 0 015.07 0h41.8C49.8 0 52 2 52 4.62zM2 11h48V4.62C50 2.9 48.43 2 46.88 2H5.06A2.79 2.79 0 002 4.62z" fill="#7e94aa"/>
  <path fill="#ecf5fe" d="M7 18h38v10H7z"/>
  <path d="M46 29H6V17h40zM8 27h36v-8H8zM6 33h40v2H6zM6 39h40v2H6z" fill="#7e94aa"/>
  <path d="M55 43c0 6.23-4.79 12-11 12s-12-5.77-12-12 5.77-11 12-11a10.85 10.85 0 0111 11z" fill="#cae87c"/>
  <path d="M44 56a13.52 13.52 0 01-13-13c0-6.5 6-12 13-12a11.89 11.89 0 0112 12c0 7.06-5.48 13-12 13zm0-23c-6 0-11 4.58-11 10 0 5.65 5.35 11 11 11 5.43 0 10-5 10-11a9.8 9.8 0 00-10-10z" fill="#7e94aa"/>
  <path fill="#7e94aa" d="M43 36h2v14h-2z"/>
  <path fill="#7e94aa" d="M37 42h14v2H37zM6 5h3v3H6zM12 5h3v3h-3zM18 5h3v3h-3z"/>
</svg>
