<svg xmlns="http://www.w3.org/2000/svg" viewBox="0 0 56 56">
  <path d="M21 25a12 12 0 1112-12 12 12 0 01-12 12zm0-22a10 10 0 1010 10A10 10 0 0021 3z" fill="#7e91a7"/>
  <path fill="#7e94aa" d="M15 8h12v2H15zM15 12h12v2H15zM15 16h12v2H15z"/>
  <path fill="#e9f2fb" d="M8 33h26v20H8z"/>
  <path d="M35 54H7V32h28zM9 52h24V34H9z" fill="#7e91a7"/>
  <path d="M34 28H8l-3 7a4 4 0 008 0 4 4 0 008 0 4 4 0 008 0 4 4 0 008 0z" fill="#fad793"/>
  <path d="M33 40a5 5 0 01-4-2 5 5 0 01-8 0 5 5 0 01-8 0 5 5 0 01-9-3v-.2L7.3 27h27.4l3.3 7.8v.2a5 5 0 01-5 5zm-5-5h2a3 3 0 006 .2L33.3 29H8.7L6 35.2a3 3 0 006-.2h2a3 3 0 006 0h2a3 3 0 006 0z" fill="#7f90a5"/>
  <path fill="#e9f2fb" d="M18 43h6v10h-6z"/>
  <path d="M25 54h-8V42h8zm-6-2h4v-8h-4z" fill="#7e91a7"/>
  <path fill="#7e94aa" d="M52 47H39v-2h11V14H38v-2h14v35z"/>
  <path fill="#7e94aa" d="M42.4 17.8l-6-4.8 6-4.8 1.3 1.6-4 3.2 4 3.2-1.4 1.6z"/>
</svg>
