<svg xmlns="http://www.w3.org/2000/svg" viewBox="0 0 56 56">
  <path d="M6.54 5h42.73a3.64 3.64 0 013.64 3.64v34.62A3.74 3.74 0 0149.16 47H6.91a4 4 0 01-4-4V8.64A3.64 3.64 0 016.54 5z" fill="#fff"/>
  <path d="M49.16 48H6.91a5 5 0 01-5-5V8.64A4.64 4.64 0 016.54 4h42.73a4.64 4.64 0 014.64 4.64v34.62A4.75 4.75 0 0149.16 48zM6.54 6a2.64 2.64 0 00-2.63 2.64V43a3 3 0 003 3h42.25a2.75 2.75 0 002.75-2.74V8.64A2.64 2.64 0 0049.27 6z" fill="#7e94aa"/>
  <path d="M6.52 2h42.27a4.11 4.11 0 014.11 4.11V13h-50V5.62A3.62 3.62 0 016.52 2z" fill="#fbd88e"/>
  <path d="M53.91 14h-52V5.62A4.74 4.74 0 017 1h41.79c2.92 0 5.12 2 5.12 4.62zm-50-2h48V5.62C51.91 3.9 50.34 3 48.79 3H7a2.78 2.78 0 00-3 2.62z" fill="#7e94aa"/>
  <path fill="#7e91a7" d="M9.91 20h36v2h-36z"/>
  <path fill="#e9f1f9" d="M14.91 21h26v33h-26z"/>
  <path d="M41.91 55h-28V20h28zm-26-2h24V22h-24z" fill="#7e91a7"/>
  <path d="M27.91 48.62a3.83 3.83 0 01-4-3.62h2a1.84 1.84 0 002 1.63 1.85 1.85 0 002-1.63v-.88a1.85 1.85 0 00-2-1.63 3.82 3.82 0 01-4-3.61V38a3.83 3.83 0 014-3.62 3.84 3.84 0 014 3.62h-2a1.85 1.85 0 00-2-1.63 1.84 1.84 0 00-2 1.63v.88a1.84 1.84 0 002 1.63 3.83 3.83 0 014 3.61V45a3.84 3.84 0 01-4 3.62z" fill="#7f93a8"/>
  <path fill="#7f93a8" d="M26.91 32h2v3h-2zM26.91 48h2v2h-2zM18.91 24h14v2h-14zM18.91 28h14v2h-14zM34.91 28h2v2h-2zM34.91 24h2v2h-2z"/>
  <path fill="#7e94aa" d="M6.91 6h3v3h-3zM12.91 6h3v3h-3zM18.91 6h3v3h-3z"/>
</svg>
