<svg xmlns="http://www.w3.org/2000/svg" viewBox="0 0 56 56">
  <path d="M5 1h42a4 4 0 014 4v30.26A3.74 3.74 0 0147.26 39H5a4 4 0 01-4-4V5a4 4 0 014-4z" fill="#fff"/>
  <path d="M47.26 40H5a5 5 0 01-5-5V5a5 5 0 015-5h42a5 5 0 015 5v30.26A4.75 4.75 0 0147.26 40zM5 2a3 3 0 00-3 3v30a3 3 0 003 3h42.26A2.74 2.74 0 0050 35.26V5a3 3 0 00-3-3z" fill="#7e91a7"/>
  <path d="M4.62 1H47a4 4 0 014 4v6H1V4.62A3.62 3.62 0 014.62 1z" fill="#f8d58b"/>
  <path d="M52 12H0V4.62A4.62 4.62 0 014.62 0H47a5 5 0 015 5zM2 10h48V5a3 3 0 00-3-3H4.62A2.63 2.63 0 002 4.62z" fill="#7e91a7"/>
  <circle cx="7" cy="6" r="1" fill="#7e91a7"/>
  <circle cx="11" cy="6" r="1" fill="#7e91a7"/>
  <circle cx="15" cy="6" r="1" fill="#7e91a7"/>
  <path fill="#7e91a7" d="M7 17h38v2H7zM7 23h39v2H7zM7 29h38v2H7z"/>
  <circle cx="38.5" cy="38.5" r="16.5" fill="#e9f2fb"/>
  <path d="M38.5 56A17.5 17.5 0 1156 38.5 17.52 17.52 0 0138.5 56zm0-33A15.5 15.5 0 1054 38.5 15.51 15.51 0 0038.5 23z" fill="#7e91a7"/>
  <path fill="#7e91a7" d="M29.32 39.31l-1.44-1.62 10.62-9.44 10.62 9.44-1.44 1.62-9.18-8.17-9.18 8.17z"/>
  <path fill="#7e91a7" d="M46 47H31V35h2v10h11V35h2v12z"/>
  <path d="M42 47h-7v-9h7zm-5-2h3v-5h-3z" fill="#7e91a7"/>
</svg>
