<svg xmlns="http://www.w3.org/2000/svg" viewBox="0 0 56 56">
  <rect x="2" y="8" width="52" height="20" rx="3" fill="#e1f5fd"/>
  <path d="M51 29H5a4 4 0 01-4-4V11a4 4 0 014-4h46a4 4 0 014 4v14a4 4 0 01-4 4zM5 9a2 2 0 00-2 2v14a2 2 0 002 2h46a2 2 0 002-2V11a2 2 0 00-2-2z" fill="#7f94a9"/>
  <path d="M40.6 51a.8.8 0 01-.7-.5l-4.3-9-4.3 3.3A.8.8 0 0130 44V26.3a.8.8 0 01.5-.7.9.9 0 01.3-.1.8.8 0 01.5.2L45.2 37a.8.8 0 01.3.8.8.8 0 01-.6.6l-5.2 1.2 4.4 9a.8.8 0 010 .6.8.8 0 01-.4.5L41 50.9a.8.8 0 01-.4.1z" fill="#fff"/>
  <path d="M40.6 52a1.8 1.8 0 01-1.6-1l-3.8-8-3.3 2.5a1.9 1.9 0 01-1.9.2 2 2 0 01-1-1.7V26a1.4 1.4 0 011-1.4 1.8 1.8 0 011.9.3l14 11.3a1.8 1.8 0 01.6 1.8 1.8 1.8 0 01-1.4 1.4l-4 .8 3.9 8a1.8 1.8 0 010 1.3 1.8 1.8 0 01-.9 1l-2.7 1.3a1.8 1.8 0 01-.8.2zm.2-1.9zM36 39.9l4.8 10 2.3-1.1-4.8-10 6-1.3L31 26.7v17zm7.2 9.1zm0-.3zm1.4-11z" fill="#7f94a9"/>
  <path d="M15 22l-1.6-5.5-1.7 5.5H9.4L7 14h2.2l1.5 5.4 1.7-5.4h1.9l1.8 5.4 1.4-5.4h2.2l-2.4 8zm13.4 0l-1.6-5.5L25 22h-2.3l-2.4-8h2.2l1.5 5.4 1.7-5.4h1.9l1.7 5.4L31 14h2.2l-2.4 8zm13.4 0l-1.7-5.5-1.6 5.5h-2.3l-2.4-8H36l1.5 5.4 1.7-5.4H41l1.7 5.4 1.5-5.4h2.2L44 22zm5.2-1.5a1.5 1.5 0 111.5 1.5 1.5 1.5 0 01-1.5-1.5z" fill="#7f92a9"/>
</svg>
