<svg xmlns="http://www.w3.org/2000/svg" viewBox="0 0 56 56">
  <path d="M6.32 8h42.35a4 4 0 014 4v33.26A3.74 3.74 0 0148.93 49H6.69a4 4 0 01-4-4V11.64A3.64 3.64 0 016.32 8z" fill="#fff"/>
  <path d="M48.93 50H6.69a5 5 0 01-5-5V11.64A4.64 4.64 0 016.32 7h42.35a5 5 0 015 5v33.26A4.75 4.75 0 0148.93 50zM6.32 9a2.64 2.64 0 00-2.64 2.64V45a3 3 0 003 3h42.25a2.75 2.75 0 002.75-2.74V12a3 3 0 00-3-3z" fill="#7e94aa"/>
  <path d="M6.3 5h42.27a4.11 4.11 0 014.11 4.11V16h-50V8.62A3.62 3.62 0 016.3 5z" fill="#fbd88e"/>
  <path d="M53.68 17h-52V8.62A4.75 4.75 0 016.74 4h41.83c2.91 0 5.11 2 5.11 4.62zm-50-2h48V8.62C51.68 6.9 50.11 6 48.57 6H6.74a2.79 2.79 0 00-3.06 2.62z" fill="#7e94aa"/>
  <path fill="#fff" d="M20.68 16v19h-5v-3l-8 6 8 7v-3h5v8"/>
  <path fill="#7e94aa" d="M21.68 50h-2v-7h-3v4.2L6.09 37.94 16.68 30v4h3V16h2v20h-7v-2l-5.41 4.06 5.41 4.74V41h7v9z"/>
  <path d="M41.68 44h-10a4 4 0 01-4-4V26h18v14a4 4 0 01-4 4z" fill="#bcdbf2"/>
  <path d="M41.68 45h-10a5 5 0 01-5-5V26a1 1 0 011-1h18a1 1 0 011 1v14a5 5 0 01-5 5zm-13-18v13a3 3 0 003 3h10a3 3 0 003-3V27z" fill="#7c90a4"/>
  <path fill="#7e94aa" d="M6.68 9h3v3h-3zM12.68 9h3v3h-3zM18.68 9h3v3h-3z"/>
  <path d="M41.68 30h-2v-5a3 3 0 00-6 0v5h-2v-5a5 5 0 0110 0z" fill="#7f93a8"/>
  <path fill="#7e94aa" d="M6.68 20h10v2h-10zM6.68 25h10v2h-10z"/>
</svg>
