<svg xmlns="http://www.w3.org/2000/svg" viewBox="0 0 56 56">
  <path fill="#fad793" d="M5 11h26.31L21 27.2V37h-6v-9.8L5 11z"/>
  <path d="M22 38h-8V27.48L3.21 10h29.92L22 27.49zm-6-2h4v-9.09L29.49 12H6.79L16 26.92z" fill="#7f90a5"/>
  <circle cx="37" cy="32" r="11" fill="#e9f2fb"/>
  <path d="M37 44.08A12.08 12.08 0 1149.08 32 12.09 12.09 0 0137 44.08zm0-22A9.92 9.92 0 1046.92 32 9.93 9.93 0 0037 22.08z" fill="#7e91a7"/>
  <path fill="#7e94aa" d="M43.094 39.732l1.49-1.451 8.163 8.382-1.49 1.451z"/>
</svg>
