<svg xmlns="http://www.w3.org/2000/svg" viewBox="0 0 56 56">
  <path d="M4.93 15h42a4 4 0 014 4v30.26A3.74 3.74 0 0147.18 53H4.93a4 4 0 01-4-4V19a4 4 0 014-4z" fill="#fff"/>
  <path d="M47.18 54H4.93a5 5 0 01-5-5V19a5 5 0 015-5h42a5 5 0 015 5v30.26A4.74 4.74 0 0147.18 54zM4.93 16a3 3 0 00-3 3v30a3 3 0 003 3h42.25a2.74 2.74 0 002.74-2.74V19a3 3 0 00-3-3z" fill="#7e91a7"/>
  <path d="M4.55 15h42.37a4 4 0 014 4v6h-50v-6.38A3.62 3.62 0 014.55 15z" fill="#f8d58b"/>
  <path d="M51.92 26h-52v-7.38A4.63 4.63 0 014.55 14h42.37a5 5 0 015 5zm-50-2h48v-5a3 3 0 00-3-3H4.55a2.63 2.63 0 00-2.63 2.62z" fill="#7e91a7"/>
  <circle cx="6.92" cy="20" r="1" fill="#7e91a7"/>
  <circle cx="10.92" cy="20" r="1" fill="#7e91a7"/>
  <circle cx="14.92" cy="20" r="1" fill="#7e91a7"/>
  <path fill="#7e91a7" d="M6.92 31h38v2h-38zM6.92 37h38v2h-38zM6.92 43h38v2h-38z"/>
  <circle cx="38.42" cy="17.5" r="16.5" fill="#e9f2fb"/>
  <path d="M38.42 35a17.5 17.5 0 1117.5-17.5A17.52 17.52 0 0138.42 35zm0-33a15.5 15.5 0 1015.5 15.5A15.52 15.52 0 0038.42 2z" fill="#7e91a7"/>
  <path fill="#7e91a7" d="M31.97 21.26L29.16 11h-2.24V9h3.77l3.2 11.74-1.92.52z"/>
  <path d="M45.68 22H32.17l-2.46-9h18.54zm-12-2h10.49l1.43-5H32.32z" fill="#7e91a7"/>
  <circle cx="34.92" cy="26" r="2" fill="#7e91a7"/>
  <circle cx="41.92" cy="26" r="2" fill="#7e91a7"/>
</svg>
