<svg xmlns="http://www.w3.org/2000/svg" viewBox="0 0 56 56">
  <path d="M48.11 54H5.29C3.09 54 1 51.78 1 49.06V10l51-.25V49c0 2.71-1.69 5-3.89 5z" fill="none"/>
  <path d="M48.11 55H5.29C2.47 55 0 52.22 0 49.06V9l53-.26V49c0 3.36-2.15 6-4.89 6zM2 11.24v37.84C2 51.32 3.73 53 5.29 53h42.82c1.6 0 2.89-1.79 2.89-4V11z" fill="#7e94aa"/>
  <path d="M5.25 5h42.61A4.14 4.14 0 0152 9.14V16H1V9.25A4.25 4.25 0 015.25 5z" fill="#ecf5fe"/>
  <path d="M53 17H0V9.26A5.55 5.55 0 015.54 4h42.32A5.15 5.15 0 0153 9.26zM2 15h49V9.26A3.17 3.17 0 0047.86 6H5.54A3.54 3.54 0 002 9.26z" fill="#7e94aa"/>
  <path fill="#fbd88e" d="M7 22h39v26H7z"/>
  <path d="M47 49H6V21h41zM8 47h37V23H8z" fill="#7e94aa"/>
  <path d="M23.74 34.57l3.08-7.21a2.76 2.76 0 014.33-.23 2.76 2.76 0 01-.27 4.3z" fill="#fbd88e"/>
  <path d="M23.74 35.57a1 1 0 01-.7-.29 1 1 0 01-.22-1.11L25.9 27a1 1 0 01.08-.14 3.49 3.49 0 012.6-1.61A4.1 4.1 0 0133 29.7a3.49 3.49 0 01-1.61 2.57l-.13.07-7.13 3.14a1 1 0 01-.39.09zm4-7.73l-2.05 4.79 4.74-2.09a1.45 1.45 0 00.57-1.08 2 2 0 00-.6-1.63 2 2 0 00-1.63-.62 1.48 1.48 0 00-1.06.63z" fill="#7e94aa"/>
  <path d="M54.68 4s-1.61-1.73-20.87 17.25L30 26.66a1.17 1.17 0 001.59 1.6L37 24.53C56.3 5.55 54.68 4 54.68 4z" fill="#bcdefa"/>
  <path d="M31.05 29.46a2.21 2.21 0 01-1.54-.66 2.09 2.09 0 01-.29-2.69L33 20.69l.13-.14C41.24 12.53 51.54 3 54.51 3a1.24 1.24 0 01.83.31 1.13 1.13 0 01.29.8c0 2.75-9.75 13-18 21.08l-.14.11-5.29 3.8a2 2 0 01-1.15.36zm3.52-7.56l-3.7 5.33s0 .08.06.14a.21.21 0 00.12.07l5.34-3.69C47.24 13.06 51.3 8.07 52.81 5.82c-2.28 1.44-7.36 5.37-18.24 16.08zM54 4.71zm0 0zm0 0zM6 9h3v3H6zM12 9h3v3h-3zM18 9h3v3h-3z" fill="#7e94aa"/>
</svg>
