<svg xmlns="http://www.w3.org/2000/svg" viewBox="0 0 56 56">
  <circle cx="3" cy="14" r="3" fill="#7e94aa"/>
  <circle cx="3" cy="52" r="3" fill="#7e94aa"/>
  <circle cx="45.5" cy="17.5" r="2.5" fill="#7e94aa"/>
  <circle cx="46" cy="52" r="3" fill="#7e94aa"/>
  <path fill="#7e94aa" d="M2 29h2v3H2zM2 24h2v3H2zM2 19h2v3H2zM12 13v2H8v-2zM2 34h2v3H2zM2 39h2v3H2zM2 44h2v3H2zM26 51v2h-3v-2zM31 51v2h-3v-2zM36 51v2h-3v-2zM41 51v2h-3v-2zM47 47h-2v-3h2zM21 51v2h-3v-2zM16 51v2h-3v-2zM11 51v2H8v-2z"/>
  <path fill="#bcdefa" d="M11 3h44v41H11z"/>
  <path d="M56 45H10V2h46zm-44-2h42V4H12z" fill="#7e94aa"/>
  <path fill="#cae87c" d="M37.31 25.47l10.1-5.16L55 24.09 54.97 44H11V28.46l17.29-7.55 17.44 9.37"/>
  <path d="M56 45H10V27.81l18.33-8 8.72 4.68 10.35-5.3 8.6 4.28zm-44-2h42V24.71l-6.58-3.28-8.23 4.2 7 3.77-.95 1.76L28.25 22 12 29.11z" fill="#7e94aa"/>
  <circle cx="23.5" cy="12.5" r="4.5" fill="#fbd88e"/>
  <path d="M23.5 18a5.5 5.5 0 115.5-5.5 5.51 5.51 0 01-5.5 5.5zm0-9a3.5 3.5 0 103.5 3.5A3.5 3.5 0 0023.5 9z" fill="#7e94aa"/>
</svg>
