<svg width="56" height="56" viewBox="0 0 56 56" fill="none" xmlns="http://www.w3.org/2000/svg">
<rect width="56" height="56" fill="white"/>
<path d="M51 18H5C3.34315 18 2 19.3431 2 21V35C2 36.6569 3.34315 38 5 38H51C52.6569 38 54 36.6569 54 35V21C54 19.3431 52.6569 18 51 18Z" fill="#E1F5FD"/>
<path d="M34 3C34.5523 3 35 3.44772 35 4V5H36C36.5523 5 37 5.44772 37 6C37 6.55228 36.5523 7 36 7H35V8C35 8.55229 34.5523 9 34 9C33.4477 9 33 8.55228 33 8V7H32C31.4477 7 31 6.55228 31 6C31 5.44772 31.4477 5 32 5H33V4C33 3.44772 33.4477 3 34 3Z" fill="#7E94AA"/>
<path d="M16.4102 29.082C16.4102 30.9805 17.8457 32.2285 20.043 32.2285C22.2695 32.2285 23.6875 30.9746 23.6875 29.082V23.5449H21.543V28.877C21.543 29.8613 21.0156 30.4473 20.0488 30.4473C19.0879 30.4473 18.5547 29.8613 18.5547 28.877V23.5449H16.4102V29.082Z" fill="#7E94AA"/>
<path fill-rule="evenodd" clip-rule="evenodd" d="M25.6797 32V23.5449H29.3535C31.4336 23.5449 32.5527 24.5879 32.5527 26.334V26.3457C32.5527 27.377 32.0312 28.3203 31.1172 28.7246L32.8047 32H30.3906L28.9434 29.041H27.8301V32H25.6797ZM27.8301 27.5703H29.1133C29.8867 27.5703 30.3613 27.1074 30.3613 26.375V26.3633C30.3613 25.6484 29.875 25.168 29.1016 25.168H27.8301V27.5703Z" fill="#7E94AA"/>
<path d="M34.2695 32V23.5449H36.4199V30.2715H40.0117V32H34.2695Z" fill="#7E94AA"/>
<path fill-rule="evenodd" clip-rule="evenodd" d="M43.9859 5.83268C43.9043 5.35183 43.4877 5 43 5C42.5123 5 42.0957 5.35183 42.0141 5.83268L41.8035 7.07346C41.3056 10.0073 39.0073 12.3056 36.0735 12.8035L34.8327 13.0141C34.3518 13.0957 34 13.5123 34 14C34 14.4877 34.3518 14.9043 34.8327 14.9859L36.0735 15.1965C37.4671 15.433 38.7174 16.0758 39.6993 17H5C3.93913 17 2.92172 17.4214 2.17157 18.1716C1.42143 18.9217 1 19.9391 1 21V35C1 36.0609 1.42143 37.0783 2.17157 37.8284C2.92172 38.5786 3.93913 39 5 39H8.69935C7.71736 39.9242 6.46711 40.567 5.07346 40.8035L3.83268 41.0141C3.35184 41.0957 3 41.5123 3 42C3 42.4877 3.35183 42.9043 3.83268 42.9859L5.07346 43.1965C8.00727 43.6944 10.3056 45.9927 10.8035 48.9265L11.0141 50.1673C11.0957 50.6482 11.5123 51 12 51C12.4877 51 12.9043 50.6482 12.9859 50.1673L13.1965 48.9265C13.6944 45.9927 15.9927 43.6944 18.9265 43.1965L20.1673 42.9859C20.6482 42.9043 21 42.4877 21 42C21 41.5123 20.6482 41.0957 20.1673 41.0141L18.9265 40.8035C17.5329 40.567 16.2826 39.9242 15.3007 39H51C52.0609 39 53.0783 38.5786 53.8284 37.8284C54.5786 37.0783 55 36.0609 55 35V21C55 19.9391 54.5786 18.9217 53.8284 18.1716C53.0783 17.4214 52.0609 17 51 17H46.3007C47.2826 16.0758 48.5329 15.433 49.9265 15.1965L51.1673 14.9859C51.6482 14.9043 52 14.4877 52 14C52 13.5123 51.6482 13.0957 51.1673 13.0141L49.9265 12.8035C46.9927 12.3056 44.6944 10.0073 44.1965 7.07346L43.9859 5.83268ZM44.8201 19C44.5248 19.5982 44.3121 20.2452 44.1965 20.9265L43.9859 22.1673C43.9043 22.6482 43.4877 23 43 23C42.5123 23 42.0957 22.6482 42.0141 22.1673L41.8035 20.9265C41.6879 20.2452 41.4752 19.5982 41.1799 19H5C4.46957 19 3.96086 19.2107 3.58579 19.5858C3.21071 19.9609 3 20.4696 3 21V35C3 35.5304 3.21071 36.0391 3.58579 36.4142C3.96086 36.7893 4.46957 37 5 37H10.1799C10.4752 36.4018 10.6879 35.7548 10.8035 35.0735L11.0141 33.8327C11.0957 33.3518 11.5123 33 12 33C12.4877 33 12.9043 33.3518 12.9859 33.8327L13.1965 35.0735C13.3121 35.7548 13.5248 36.4018 13.8201 37H51C51.5304 37 52.0391 36.7893 52.4142 36.4142C52.7893 36.0391 53 35.5304 53 35V21C53 20.4696 52.7893 19.9609 52.4142 19.5858C52.0391 19.2107 51.5304 19 51 19H44.8201ZM38.8311 14C40.6475 13.1186 42.1186 11.6475 43 9.83107C43.8814 11.6475 45.3525 13.1186 47.1689 14C45.3525 14.8814 43.8814 16.3525 43 18.1689C42.1186 16.3525 40.6475 14.8814 38.8311 14ZM12 37.8311C11.1186 39.6475 9.6475 41.1186 7.83107 42C9.6475 42.8814 11.1186 44.3525 12 46.1689C12.8814 44.3525 14.3525 42.8814 16.1689 42C14.3525 41.1186 12.8814 39.6475 12 37.8311Z" fill="#7E94AA"/>
</svg>
