<svg xmlns="http://www.w3.org/2000/svg" viewBox="0 0 56 56">
  <path d="M50.11 53H6.29C4.09 53 2 50.78 2 48.06V9l52-.25V48c0 2.71-1.69 5-3.89 5z" fill="#fff"/>
  <path d="M50.11 54H6.29C3.47 54 1 51.22 1 48.06V8l54-.26V48c0 3.36-2.15 6-4.89 6zM3 10.24v37.84C3 50.33 4.73 52 6.29 52h43.82c1.6 0 2.89-1.79 2.89-4V10z" fill="#7e94aa"/>
  <path d="M6.25 2h43.5A4.25 4.25 0 0154 6.25V13H2V6.25A4.25 4.25 0 016.25 2z" fill="#fad793"/>
  <path d="M55 14H1V6.25A5.26 5.26 0 016.25 1h43.5A5.26 5.26 0 0155 6.25zM3 12h50V6.25A3.26 3.26 0 0049.75 3H6.25A3.26 3.26 0 003 6.25z" fill="#7f90a5"/>
  <path fill="#7e94aa" d="M6 6h3v3H6zM12 6h3v3h-3zM18 6h3v3h-3z"/>
  <path fill="#e9f2fb" d="M15 26h26v19H15z"/>
  <path d="M42 46H14V25h28zm-26-2h24V27H16z" fill="#7e91a7"/>
  <path d="M41 21H15l-3 7a4 4 0 008 0 4 4 0 008 0 4 4 0 008 0 4 4 0 008 0z" fill="#fad793"/>
  <path d="M40 33a5 5 0 01-4-2 5 5 0 01-8 0 5 5 0 01-8 0 5 5 0 01-9-3v-.21L14.34 20h27.32L45 27.79V28a5 5 0 01-5 5zm-5-5h2a3 3 0 006 .19L40.34 22H15.66L13 28.19a3 3 0 006-.19h2a3 3 0 006 0h2a3 3 0 006 0z" fill="#7f90a5"/>
  <path fill="#e9f2fb" d="M25 36h6v9h-6z"/>
  <path d="M32 46h-8V35h8zm-6-2h4v-7h-4z" fill="#7e91a7"/>
</svg>
