<?xml version="1.0" encoding="utf-8"?>
<!-- Generator: Adobe Illustrator 18.0.0, SVG Export Plug-In . SVG Version: 6.00 Build 0)  -->
<svg version="1.1" id="Layer_1" xmlns="http://www.w3.org/2000/svg" xmlns:xlink="http://www.w3.org/1999/xlink" x="0px" y="0px"
	 viewBox="0 0 68.24 69.41" enable-background="new 0 0 68.24 69.41" xml:space="preserve">
<g>
	<path fill="#59BB00" d="M33.4,54.68v-4.79c-3.38-0.15-6.66-1.06-8.57-2.17l1.51-5.9c2.12,1.16,5.09,2.22,8.37,2.22
		c2.87,0,4.84-1.11,4.84-3.12c0-1.92-1.61-3.13-5.34-4.39c-5.39-1.81-9.08-4.34-9.08-9.23c0-4.44,3.13-7.92,8.52-8.97v-4.79h4.94
		v4.44c3.38,0.15,5.65,0.86,7.31,1.66l-1.46,5.7c-1.31-0.55-3.63-1.71-7.26-1.71c-3.28,0-4.34,1.41-4.34,2.82
		c0,1.66,1.76,2.72,6.05,4.34c6,2.12,8.42,4.89,8.42,9.43c0,4.49-3.18,8.32-8.97,9.33v5.14H33.4z"/>
</g>
</svg>
