<?xml version="1.0" encoding="utf-8"?>
<!-- Generator: Adobe Illustrator 18.0.0, SVG Export Plug-In . SVG Version: 6.00 Build 0)  -->
<!DOCTYPE svg PUBLIC "-//W3C//DTD SVG 1.1//EN" "http://www.w3.org/Graphics/SVG/1.1/DTD/svg11.dtd">
<svg version="1.1" id="Layer_1" xmlns="http://www.w3.org/2000/svg" xmlns:xlink="http://www.w3.org/1999/xlink" x="0px" y="0px"
	 viewBox="0 0 68.24 69.41" enable-background="new 0 0 68.24 69.41" xml:space="preserve" >
<g>
	<path fill="#59BB00" d="M53.26,38.77c1.65-5.03,4.24-16.05,5.22-19.97c0.86-3.47,1.43-4.76-0.13-4.73c-1.3,0.02-4.63,0.34-5.32,3.08
		c-1.15,4.58-3.88,15.14-4.89,18.5c-1.1,3.69-3.45,4.46-6.4,4.48c-2.57,0.02-3.99-0.18-3.99-2.13c-0.82-0.02-2.08-0.01-2.67,0
		c-0.58,0-1.85-0.01-2.67,0c0,2.06-1.42,2.13-3.99,2.13c-1.91,0-4.81-0.36-5.88-3.86c-0.74-2.44-2.59-8.76-3.54-12.1
		c-0.95-3.34-3.94-3.53-5.37-3.53c-1.58-0.01-1.45,0.25-0.54,3.53c0.91,3.28,2.9,10.61,4.3,15.52c1.4,4.91,6.18,6.51,9.24,6.51
		c2.62,0,2.71,0,5.16,0c2.34,0,3.17-1,3.29-1.32c0.13,0.32,1.03,1.32,3.37,1.32c2.44,0,2.38,0,5,0
		C47.71,46.2,51.66,43.62,53.26,38.77z"/>
	<circle fill="#59BB00" cx="27.26" cy="23.58" r="2.44"/>
	<circle fill="#59BB00" cx="35.21" cy="23.58" r="2.44"/>
	<path fill="#59BB00" d="M43.25,26.02c1.35,0,2.44-1.09,2.44-2.44s-1.1-2.44-2.44-2.44c-1.35,0-2.44,1.09-2.44,2.44
		C40.8,24.93,41.9,26.02,43.25,26.02z"/>
	<circle fill="#59BB00" cx="27.26" cy="32.38" r="2.44"/>
	<circle fill="#59BB00" cx="35.21" cy="32.38" r="2.44"/>
	<path fill="#59BB00" d="M43.25,34.82c1.35,0,2.44-1.09,2.44-2.44c0-1.35-1.1-2.44-2.44-2.44c-1.35,0-2.44,1.09-2.44,2.44
		C40.8,33.73,41.9,34.82,43.25,34.82z"/>
	<path fill="#59BB00" d="M15.8,47.55c-2.7,0-4.9,2.19-4.9,4.9c0,2.7,2.19,4.9,4.9,4.9c2.71,0,4.9-2.19,4.9-4.9C20.7,49.74,18.51,47.55,15.8,47.55z
		 M15.8,54.2c-0.97,0-1.76-0.79-1.76-1.76c0-0.97,0.79-1.76,1.76-1.76c0.97,0,1.76,0.78,1.76,1.76S16.77,54.2,15.8,54.2z"/>
	<path fill="#59BB00" d="M54.43,47.49c-2.71,0-4.9,2.19-4.9,4.9c0,2.7,2.19,4.9,4.9,4.9c2.7,0,4.9-2.2,4.9-4.9C59.33,49.68,57.13,47.49,54.43,47.49
		z M54.43,54.14c-0.97,0-1.76-0.79-1.76-1.76c0-0.97,0.79-1.76,1.76-1.76c0.97,0,1.76,0.79,1.76,1.76
		C56.19,53.35,55.4,54.14,54.43,54.14z"/>
</g>
</svg>
