<?xml version="1.0" encoding="utf-8"?>
<!-- Generator: Adobe Illustrator 18.0.0, SVG Export Plug-In . SVG Version: 6.00 Build 0)  -->
<!DOCTYPE svg PUBLIC "-//W3C//DTD SVG 1.1//EN" "http://www.w3.org/Graphics/SVG/1.1/DTD/svg11.dtd">
<svg version="1.1" id="Layer_1" xmlns="http://www.w3.org/2000/svg" xmlns:xlink="http://www.w3.org/1999/xlink" x="0px" y="0px"
	 viewBox="0 0 68.24 69.41" enable-background="new 0 0 68.24 69.41" xml:space="preserve">
<line fill="none" stroke="#70B4D5" stroke-width="2" stroke-miterlimit="10" x1="28.77" y1="26.8" x2="28.77" y2="62.1"/>
<line fill="none" stroke="#70B4D5" stroke-width="2" stroke-miterlimit="10" x1="40.23" y1="25.66" x2="40.23" y2="62.1"/>
<line fill="none" stroke="#70B4D5" stroke-width="2" stroke-miterlimit="10" x1="7" y1="25.66" x2="62" y2="25.66"/>
<line fill="none" stroke="#70B4D5" stroke-width="2" stroke-miterlimit="10" x1="60.85" y1="25.66" x2="60.85" y2="35.97"/>
<line fill="none" stroke="#70B4D5" stroke-width="2" stroke-miterlimit="10" x1="62" y1="35.97" x2="41.38" y2="35.97"/>
<line fill="none" stroke="#70B4D5" stroke-width="2" stroke-miterlimit="10" x1="27.62" y1="35.97" x2="7" y2="35.97"/>
<line fill="none" stroke="#70B4D5" stroke-width="2" stroke-miterlimit="10" x1="8.15" y1="35.97" x2="8.15" y2="25.66"/>
<line fill="none" stroke="#70B4D5" stroke-width="2" stroke-miterlimit="10" x1="10.44" y1="39.41" x2="10.44" y2="61.18"/>
<line fill="none" stroke="#70B4D5" stroke-width="2" stroke-miterlimit="10" x1="58.56" y1="39.41" x2="58.56" y2="61.18"/>
<line fill="none" stroke="#70B4D5" stroke-width="2" stroke-linecap="round" stroke-miterlimit="10" x1="10.44" y1="61.18" x2="28.77" y2="61.18"/>
<line fill="none" stroke="#70B4D5" stroke-width="2" stroke-linecap="round" stroke-miterlimit="10" x1="37.56" y1="61.18" x2="58.56" y2="61.18"/>
<line fill="none" stroke="#70B4D5" stroke-width="2" stroke-miterlimit="10" x1="40.23" y1="61.18" x2="28.77" y2="61.18"/>
<path fill="none" stroke="#70B4D5" stroke-width="2" stroke-miterlimit="10" d="M29.79,15.77c-0.17,0.31-0.29,0.64-0.29,1.01v2.17
	c0,1.2,0.97,2.17,2.17,2.17h5.49c1.2,0,2.17-0.97,2.17-2.17v-2.17c0-0.37-0.12-0.7-0.28-1.01"/>
<path fill="none" stroke="#70B4D5" stroke-width="2" stroke-linecap="round" stroke-linejoin="round" stroke-miterlimit="10" d="
	M42.02,20.97h4.75c2.24,0,15.76-2.7,5.58-12.87c-1.27-1.27-2.42-1.93-3.44-1.92c-1.24,0.01-2.28,0.93-3.07,1.92
	c-2.64,3.31-5.4,5.83-7.08,7.25c-0.4-0.45-0.96-0.74-1.6-0.74h-5.49c-0.64,0-1.2,0.29-1.6,0.74c-1.68-1.42-4.44-3.94-7.08-7.25
	c-0.8-1-1.85-1.93-3.12-1.92c-1,0.01-2.14,0.67-3.39,1.92C6.3,18.27,19.82,20.97,22.06,20.97h4.75"/>
</svg>
