<?xml version="1.0" encoding="UTF-8"?>
<!-- Generator: Adobe Illustrator 16.0.0, SVG Export Plug-In . SVG Version: 6.00 Build 0)  -->
<svg version="1.1" id="Layer_1" xmlns="http://www.w3.org/2000/svg" xmlns:xlink="http://www.w3.org/1999/xlink" x="0px" y="0px" viewBox="0 0 75 75" enable-background="new 0 0 75 75" xml:space="preserve">
<path fill-rule="evenodd" clip-rule="evenodd" fill="#70B4D5" d="M37.5,73.056c-19.637,0-35.556-15.918-35.556-35.557  c0-19.636,15.919-35.555,35.556-35.555s35.556,15.918,35.556,35.555C73.056,57.138,57.137,73.056,37.5,73.056z M61.938,59.137  c4.84-5.474,7.891-12.569,8.188-20.382H56.108c-0.119,6.328-1.131,12.22-2.794,17.268c5.389,1.432,8.624,3.076,8.624,3.076V59.137z   M59.889,61.259c-1.645-0.711-4.23-1.697-7.534-2.576c-1.779,4.437-4.102,8.055-6.786,10.49  C51.029,67.786,55.921,65.007,59.889,61.259z M38.817,70.056c4.745-0.702,8.65-5.162,11.208-11.943  c-3.249-0.725-7.036-1.274-11.208-1.381V70.056z M38.817,53.967c4.562,0.103,8.663,0.706,12.101,1.476  c1.443-4.788,2.291-10.479,2.392-16.688H38.817V53.967z M53.307,35.995c-0.123-6.223-1.011-11.92-2.496-16.698  c-3.413,0.762-7.476,1.358-11.993,1.464v15.234H53.307z M36.058,35.995V20.762c-4.475-0.103-8.508-0.685-11.912-1.433  c-1.465,4.771-2.332,10.458-2.452,16.666H36.058z M21.691,38.755c0.1,6.202,0.946,11.889,2.387,16.674  c3.415-0.758,7.473-1.351,11.98-1.46V38.755H21.691z M36.058,70.044V56.73c-4.123,0.101-7.872,0.635-11.094,1.347  C27.5,64.821,31.364,69.281,36.058,70.044z M29.432,69.173c-2.692-2.442-5.02-6.074-6.8-10.528c-3.305,0.873-5.894,1.857-7.56,2.575  C19.047,64.987,23.953,67.781,29.432,69.173z M13.001,59.068c0.353-0.174,3.539-1.71,8.678-3.063  c-1.66-5.045-2.669-10.93-2.788-17.25H4.875C5.17,46.535,8.197,53.604,13.001,59.068z M4.885,35.995h14.012  c0.142-6.324,1.176-12.205,2.86-17.234c-4.661-1.216-7.744-2.59-8.607-2.998C8.311,21.191,5.239,28.232,4.885,35.995z   M15.247,13.611c1.697,0.72,4.248,1.672,7.473,2.515c1.77-4.351,4.065-7.898,6.712-10.3C24.033,7.197,19.19,9.929,15.247,13.611z   M25.056,16.688c3.202,0.699,6.921,1.218,11.002,1.313V4.955C31.419,5.708,27.593,10.078,25.056,16.688z M38.817,4.945v13.052  c4.113-0.109,7.852-0.648,11.066-1.361C47.307,10.007,43.439,5.646,38.817,4.945z M52.254,16.058  c3.227-0.856,5.765-1.813,7.421-2.521c-3.929-3.646-8.744-6.348-14.106-7.71C48.201,8.215,50.488,11.738,52.254,16.058z   M61.777,15.681c-0.539,0.264-3.649,1.733-8.55,3.033c1.693,5.039,2.733,10.938,2.876,17.281h14.012  C69.76,28.193,66.659,21.12,61.777,15.681z"/>
</svg>