<?xml version="1.0" encoding="utf-8"?>
<!-- Generator: Adobe Illustrator 18.0.0, SVG Export Plug-In . SVG Version: 6.00 Build 0)  -->
<!DOCTYPE svg PUBLIC "-//W3C//DTD SVG 1.1//EN" "http://www.w3.org/Graphics/SVG/1.1/DTD/svg11.dtd">
<svg version="1.1" id="Layer_1" xmlns="http://www.w3.org/2000/svg" xmlns:xlink="http://www.w3.org/1999/xlink" x="0px" y="0px"
	 viewBox="0 0 68.24 69.41" enable-background="new 0 0 68.24 69.41" xml:space="preserve" width="52" height="52">
<path fill="#0079C8" d="M33.99,3.85c-16.68,0-30.25,13.57-30.25,30.25c0,4.11,0.55,7.06,1.77,9.54c1.72,3.48,4.67,6.08,7.91,6.94
	c2.78,0.74,5.62,0.22,8.19-1.52c0.42-0.28,0.82-0.57,1.18-0.85c1.37,0.58,3.01,0.32,4.12-0.8l1.52-1.52
	c4.17,2.06,9.41,1.36,12.91-2.15l1.62-1.62c1.31-1.31,1.31-3.42,0-4.73l-0.19-0.19l5.82-5.82c0.98-0.98,0.98-2.57,0-3.54
	c-0.98-0.98-2.56-0.98-3.55,0l-5.82,5.82l-3.87-3.87l5.82-5.82c0.98-0.98,0.98-2.56,0-3.55c-0.98-0.98-2.57-0.98-3.55,0l-5.84,5.84
	c-1.31-1.11-3.28-1.07-4.52,0.17l-1.62,1.62c-3.37,3.37-4.16,8.32-2.4,12.39l-1.66,1.66c-0.99,0.99-1.3,2.39-0.95,3.65
	c-0.27,0.2-0.56,0.41-0.86,0.61c-1.8,1.21-3.66,1.57-5.53,1.07c-2.34-0.62-4.52-2.58-5.83-5.23c-0.99-2.01-1.43-4.51-1.43-8.1
	c0-14.88,12.11-26.98,26.99-26.98s26.98,12.1,26.98,26.98c0,14.88-12.1,26.98-26.98,26.98c-6.33,0-12.96-2.46-16.91-6.26
	c-0.65-0.62-1.68-0.6-2.31,0.04c-0.62,0.65-0.6,1.68,0.04,2.31c4.52,4.35,12.05,7.17,19.17,7.17c16.68,0,30.25-13.57,30.25-30.25
	S50.67,3.85,33.99,3.85z"/>
</svg>
