<?xml version="1.0" encoding="UTF-8"?>
<!-- Generator: Adobe Illustrator 16.0.0, SVG Export Plug-In . SVG Version: 6.00 Build 0)  -->
<!DOCTYPE svg PUBLIC "-//W3C//DTD SVG 1.1//EN" "http://www.w3.org/Graphics/SVG/1.1/DTD/svg11.dtd">
<svg version="1.1" id="Layer_1" xmlns="http://www.w3.org/2000/svg" xmlns:xlink="http://www.w3.org/1999/xlink" x="0px" y="0px" viewBox="0 0 100 71" enable-background="new 0 0 100 71" xml:space="preserve">
<path fill-rule="evenodd" clip-rule="evenodd" fill="#70B4D5" d="M95.5,68.947H52.649c-1.988,0-3.6-1.613-3.6-3.6v-3.312H24.9v3  c0,1.986-1.612,3.6-3.601,3.6H4.5c-1.988,0-3.6-1.613-3.6-3.6V38.652c0-1.988,1.611-3.6,3.6-3.6h6.601V5.653  c0-1.989,1.611-3.601,3.6-3.601h64.8c1.988,0,3.6,1.611,3.6,3.601V26.99h12.4c1.988,0,3.6,1.612,3.6,3.601v34.757  C99.1,67.334,97.488,68.947,95.5,68.947z M6.056,38.033c-1.192,0-2.16,0.967-2.16,2.158v23.285c0,1.193,0.968,2.16,2.16,2.16h13.693  c1.192,0,2.159-0.967,2.159-2.16V40.191c0-1.191-0.967-2.158-2.159-2.158H6.056z M80.108,7.192c0-1.193-0.967-2.16-2.16-2.16H16.256  c-1.193,0-2.16,0.967-2.16,2.16v27.86H21.3c1.988,0,3.601,1.611,3.601,3.6v20.369l24.149,0.016V30.591  c0-1.988,1.611-3.601,3.6-3.601h27.459V7.192z M96.108,32.13c0-1.193-0.967-2.16-2.16-2.16H54.205c-1.193,0-2.16,0.967-2.16,2.16  v31.659c0,1.193,0.967,2.16,2.16,2.16h39.743c1.193,0,2.16-0.967,2.16-2.16V32.13z M57.044,49.777c-0.991,0-1.794-0.803-1.794-1.793  c0-0.992,0.803-1.795,1.794-1.795c0.99,0,1.794,0.803,1.794,1.795C58.838,48.975,58.034,49.777,57.044,49.777z M30.601,11.334  c-0.991,0-1.795-0.804-1.795-1.794c0-0.991,0.804-1.795,1.795-1.795c0.99,0,1.794,0.804,1.794,1.795  C32.395,10.53,31.591,11.334,30.601,11.334z M24.601,11.334c-0.991,0-1.795-0.804-1.795-1.794c0-0.991,0.804-1.795,1.795-1.795  c0.99,0,1.794,0.804,1.794,1.795C26.395,10.53,25.591,11.334,24.601,11.334z M18.601,11.334c-0.991,0-1.795-0.804-1.795-1.794  c0-0.991,0.804-1.795,1.795-1.795c0.99,0,1.794,0.804,1.794,1.795C20.395,10.53,19.591,11.334,18.601,11.334z M13.2,62.934  c-0.991,0-1.794-0.803-1.794-1.795c0-0.99,0.803-1.793,1.794-1.793s1.794,0.803,1.794,1.793  C14.994,62.131,14.191,62.934,13.2,62.934z"/>
</svg>