<svg xmlns="http://www.w3.org/2000/svg" width="60" height="68" viewBox="0 0 60 68"><path fill="#53ACC9" d="M30 1.562c15.18 0 26.117 6.07 28.672 7.627.004 2.44.016 10.503.016 15.16 0 11.498-3.775 21.395-11.223 29.422-6.07 6.543-13.104 10.203-16.484 11.963-.366.19-.694.36-.98.515-.292-.152-.622-.325-.997-.518-6.848-3.558-27.69-14.373-27.69-41.377 0-4.683.01-12.807.015-15.2C2.32 8.49 4.732 7.006 8.4 5.537 12.93 3.723 20.35 1.562 30 1.562M30 .25C10.804.25.015 8.468.015 8.468S0 18.815 0 24.35c0 30.476 25.658 40.865 30 43.4 4.342-2.535 30-12.992 30-43.4 0-5.535-.016-15.884-.016-15.884S47.982.25 30 .25z"/><path fill="#53ACC9" d="M14.527 28.562h-3.472v-7.066H9.238v8.566h5.292v-1.5h-.003zm6.424 0h-3.116v-2.21h2.9v-1.487h-2.9v-1.88h3.117v-1.487h-4.933v8.565h4.934v-1.5zm6.674-7.064L26 26.595c-.25.898-.396 1.527-.438 1.887-.022-.156-.083-.435-.18-.835-.095-.403-.188-.753-.276-1.054l-1.612-5.098H21.66l2.906 8.565h1.98l2.914-8.565h-1.837v.003zm7.845 7.064h-3.117v-2.21h2.9v-1.487h-2.9v-1.88h3.117v-1.487h-4.934v8.565h4.934v-1.5zm7.077 0h-3.475v-7.066h-1.816v8.566h5.29v-1.5zm6.757-7.064l-2.76 2.197.872 1.09.984-.793c.117-.094.326-.29.627-.592l-.03.893-.017.813v4.958h1.81v-8.568h-1.486v.002zm-33.55 14.984h-2.052v6.424h1.362V40.62h.585c.794 0 1.41-.183 1.842-.548.433-.366.648-.895.648-1.586 0-.663-.202-1.163-.61-1.5-.405-.338-.996-.503-1.776-.504zm.7 2.776c-.208.164-.52.247-.94.247h-.45v-1.907h.62c.373 0 .646.076.82.23s.263.388.263.706c0 .316-.106.557-.313.724zm5.628-1.735c.234 0 .473.042.716.127.244.084.485.185.726.3l.44-1.11c-.63-.3-1.255-.45-1.88-.45-.61 0-1.145.134-1.6.4s-.807.652-1.05 1.155c-.243.502-.364 1.087-.364 1.756 0 1.062.248 1.876.743 2.442s1.21.85 2.145.85c.65 0 1.237-.105 1.766-.325v-1.145c-.64.226-1.188.337-1.64.337-1.075 0-1.612-.717-1.612-2.15 0-.687.14-1.224.42-1.608.282-.385.68-.578 1.194-.578h-.004zm3.006 5.383h1.365v-6.424h-1.365v6.424zm7.896-6.423h-2.018v6.426h1.82c1.137 0 2.006-.282 2.608-.845s.903-1.372.903-2.43c0-.993-.29-1.766-.87-2.32-.577-.553-1.393-.83-2.443-.832zm-.07 5.3h-.584V37.6h.726c1.22 0 1.828.69 1.828 2.07 0 1.41-.656 2.113-1.97 2.114zm6.94-2.582c-.453-.218-.742-.367-.862-.45-.12-.082-.21-.17-.267-.26s-.082-.194-.082-.314c0-.192.067-.35.206-.47.138-.12.334-.18.592-.18.217 0 .438.028.662.083.225.053.508.153.85.295l.44-1.058c-.33-.145-.648-.255-.952-.334-.305-.08-.62-.12-.955-.12-.68 0-1.213.163-1.598.487-.387.324-.58.772-.58 1.34 0 .303.06.566.177.793.116.225.273.422.47.592s.49.348.884.533c.42.2.698.344.833.435.135.09.24.185.31.283s.106.21.106.337c0 .226-.08.395-.24.51-.16.116-.392.174-.69.174-.25 0-.524-.04-.824-.12-.3-.08-.667-.216-1.1-.41v1.267c.526.258 1.134.388 1.82.388.74 0 1.323-.168 1.74-.503.417-.335.626-.79.626-1.37 0-.42-.11-.773-.333-1.063s-.636-.578-1.236-.866zm4.957 0c-.453-.218-.74-.367-.862-.45-.12-.082-.21-.17-.266-.26s-.082-.194-.082-.314c0-.192.068-.35.207-.47.14-.12.336-.18.594-.18.218 0 .437.028.66.083.224.053.51.153.85.295l.44-1.058c-.33-.145-.648-.255-.952-.334-.304-.08-.622-.12-.956-.12-.678 0-1.21.163-1.597.487s-.577.772-.577 1.34c0 .303.06.566.175.793.117.225.272.422.47.592.196.17.49.348.885.533.418.2.696.344.832.435.137.09.24.185.31.283s.104.21.104.337c0 .226-.078.395-.238.51-.16.116-.39.174-.688.174-.25 0-.523-.04-.824-.12-.303-.08-.668-.216-1.102-.41v1.267c.527.258 1.135.388 1.82.388.744 0 1.325-.168 1.742-.503.417-.335.625-.79.625-1.37 0-.42-.113-.773-.337-1.063-.223-.29-.635-.577-1.236-.864l.004-.002z"/></svg>