<?xml version="1.0" encoding="utf-8"?>
<!-- Generator: Adobe Illustrator 18.0.0, SVG Export Plug-In . SVG Version: 6.00 Build 0)  -->
<!DOCTYPE svg PUBLIC "-//W3C//DTD SVG 1.1//EN" "http://www.w3.org/Graphics/SVG/1.1/DTD/svg11.dtd">
<svg version="1.1" id="Layer_1" xmlns="http://www.w3.org/2000/svg" xmlns:xlink="http://www.w3.org/1999/xlink" x="0px" y="0px"
	 viewBox="0 0 68.24 69.41" enable-background="new 0 0 68.24 69.41" xml:space="preserve">
<path fill="#70B4D5" d="M20.15,37.54h0.59c0.35,0,0.62,0.07,0.78,0.22c0.17,0.15,0.25,0.37,0.25,0.68c0,0.3-0.1,0.54-0.3,0.7
	c-0.2,0.16-0.5,0.24-0.9,0.24h-0.43V37.54z M22.5,36.95c-0.39-0.32-0.95-0.48-1.69-0.48h-1.96v6.19h1.3v-2.2h0.56
	c0.76,0,1.35-0.18,1.76-0.53c0.41-0.35,0.62-0.86,0.62-1.53C23.08,37.75,22.89,37.27,22.5,36.95z"/>
<path fill="#70B4D5" d="M27.53,37.59c0.23,0.08,0.46,0.18,0.69,0.29l0.42-1.07c-0.6-0.29-1.2-0.44-1.79-0.44
	c-0.58,0-1.09,0.13-1.53,0.39c-0.43,0.26-0.77,0.63-1,1.11c-0.23,0.48-0.35,1.05-0.35,1.69c0,1.02,0.24,1.81,0.71,2.35
	c0.47,0.55,1.15,0.82,2.04,0.82c0.62,0,1.18-0.11,1.68-0.32v-1.1c-0.61,0.22-1.13,0.33-1.56,0.33c-1.03,0-1.54-0.69-1.54-2.07
	c0-0.66,0.13-1.18,0.4-1.55c0.27-0.37,0.65-0.56,1.14-0.56C27.07,37.47,27.29,37.51,27.53,37.59z"/>
<path fill="#70B4D5" d="M31.01,42.65v-6.19h-1.3v6.19H31.01z"/>
<path fill="#70B4D5" d="M34.28,40.86V39.8h-2.25v1.06H34.28z"/>
<path fill="#70B4D5" d="M39.56,37.26c-0.55-0.53-1.33-0.8-2.33-0.8h-1.92v6.19h1.73c1.08,0,1.91-0.27,2.49-0.81s0.86-1.32,0.86-2.34
	C40.39,38.54,40.12,37.8,39.56,37.26z M37.17,41.57h-0.56v-4.03h0.69c1.16,0,1.74,0.66,1.74,1.99
	C39.04,40.89,38.42,41.57,37.17,41.57L37.17,41.57z"/>
<path fill="#70B4D5" d="M44.96,39.91c-0.21-0.28-0.6-0.56-1.18-0.83c-0.43-0.21-0.71-0.35-0.82-0.43c-0.12-0.08-0.2-0.16-0.25-0.25
	c-0.05-0.09-0.08-0.19-0.08-0.3c0-0.19,0.07-0.34,0.2-0.45c0.13-0.12,0.32-0.17,0.57-0.17c0.21,0,0.42,0.03,0.63,0.08
	c0.21,0.05,0.48,0.15,0.81,0.28l0.42-1.02c-0.32-0.14-0.62-0.25-0.91-0.32c-0.29-0.08-0.59-0.11-0.91-0.11
	c-0.65,0-1.16,0.16-1.52,0.47c-0.37,0.31-0.55,0.74-0.55,1.29c0,0.29,0.06,0.55,0.17,0.76c0.11,0.22,0.26,0.41,0.45,0.57
	c0.19,0.16,0.47,0.33,0.84,0.51c0.4,0.19,0.66,0.33,0.79,0.42c0.13,0.09,0.23,0.18,0.3,0.27c0.07,0.09,0.1,0.2,0.1,0.32
	c0,0.22-0.08,0.38-0.23,0.49c-0.15,0.11-0.37,0.17-0.66,0.17c-0.24,0-0.5-0.04-0.79-0.11c-0.29-0.08-0.64-0.21-1.05-0.39v1.22
	c0.5,0.25,1.08,0.37,1.73,0.37c0.71,0,1.26-0.16,1.66-0.48c0.4-0.32,0.6-0.76,0.6-1.32C45.28,40.53,45.17,40.19,44.96,39.91z"/>
<path fill="#70B4D5" d="M49.69,39.91c-0.21-0.28-0.6-0.56-1.18-0.83c-0.43-0.21-0.71-0.35-0.82-0.43c-0.12-0.08-0.2-0.16-0.25-0.25
	c-0.05-0.09-0.08-0.19-0.08-0.3c0-0.19,0.07-0.34,0.2-0.45c0.13-0.12,0.32-0.17,0.57-0.17c0.21,0,0.42,0.03,0.63,0.08
	c0.21,0.05,0.48,0.15,0.81,0.28l0.42-1.02c-0.32-0.14-0.62-0.25-0.91-0.32c-0.29-0.08-0.59-0.11-0.91-0.11
	c-0.65,0-1.16,0.16-1.52,0.47c-0.37,0.31-0.55,0.74-0.55,1.29c0,0.29,0.06,0.55,0.17,0.76c0.11,0.22,0.26,0.41,0.45,0.57
	c0.19,0.16,0.47,0.33,0.84,0.51c0.4,0.19,0.66,0.33,0.79,0.42c0.13,0.09,0.23,0.18,0.3,0.27c0.07,0.09,0.1,0.2,0.1,0.32
	c0,0.22-0.08,0.38-0.23,0.49s-0.37,0.17-0.66,0.17c-0.24,0-0.5-0.04-0.79-0.11c-0.29-0.08-0.64-0.21-1.05-0.39v1.22
	c0.5,0.25,1.08,0.37,1.73,0.37c0.71,0,1.26-0.16,1.66-0.48c0.4-0.32,0.6-0.76,0.6-1.32C50,40.53,49.9,40.19,49.69,39.91z"/>
<path fill="#70B4D5" d="M17.6,21.39h-1.42l-2.63,2.12l0.83,1.05l0.94-0.76c0.11-0.09,0.31-0.28,0.6-0.57l-0.03,0.86l-0.02,0.78v4.78
	h1.73V21.39z"/>
<path fill="#70B4D5" d="M28.45,29.65V28.2h-3.31v-6.81H23.4v8.25H28.45z"/>
<path fill="#70B4D5" d="M34.57,28.2H31.6v-2.13h2.77v-1.43H31.6v-1.81h2.97v-1.43h-4.7v8.25h4.7V28.2z"/>
<path fill="#70B4D5" d="M39.39,26.31c-0.24,0.87-0.38,1.47-0.42,1.82c-0.02-0.15-0.08-0.42-0.17-0.8c-0.09-0.39-0.18-0.72-0.27-1.01
	l-1.54-4.91h-1.75l2.77,8.25h1.89l2.78-8.25h-1.75L39.39,26.31z"/>
<path fill="#70B4D5" d="M48.41,28.2h-2.97v-2.13h2.77v-1.43h-2.77v-1.81h2.97v-1.43h-4.7v8.25h4.7V28.2z"/>
<path fill="#70B4D5" d="M55.16,29.65V28.2h-3.31v-6.81h-1.73v8.25H55.16z"/>
<g>
	<path fill="#70B4D5" d="M34.28,67.45L33.7,67.1c-0.34-0.2-0.82-0.45-1.42-0.77C25.69,62.84,5.64,52.25,5.64,25.61
		c0-5.17,0.02-14.82,0.02-14.82l0-0.56L6.1,9.88c0.42-0.32,10.4-7.91,28.18-7.91c16.65,0,27.68,7.55,28.14,7.88l0.49,0.34l0,0.6
		c0,0,0.01,9.66,0.01,14.82c0,26.6-20.06,37.23-26.65,40.72c-0.59,0.31-1.07,0.57-1.4,0.76L34.28,67.45z M7.95,11.38
		c0,2.18-0.01,9.83-0.01,14.23c0,25.25,19.13,35.36,25.41,38.68c0.35,0.18,0.66,0.35,0.93,0.5c0.27-0.14,0.57-0.31,0.91-0.49
		c6.29-3.33,25.43-13.47,25.43-38.69c0-4.38-0.01-11.98-0.01-14.2c-2.29-1.42-12.34-7.15-26.33-7.15
		C19.37,4.27,10.04,9.96,7.95,11.38z"/>
</g>
</svg>