<?xml version="1.0" encoding="utf-8"?>
<!-- Generator: Adobe Illustrator 18.0.0, SVG Export Plug-In . SVG Version: 6.00 Build 0)  -->
<!DOCTYPE svg PUBLIC "-//W3C//DTD SVG 1.1//EN" "http://www.w3.org/Graphics/SVG/1.1/DTD/svg11.dtd">
<svg version="1.1" id="Layer_1" xmlns="http://www.w3.org/2000/svg" xmlns:xlink="http://www.w3.org/1999/xlink" x="0px" y="0px"
	 viewBox="0 0 215 215" enable-background="new 0 0 215 215" xml:space="preserve">
<g>
	<path fill-rule="evenodd" clip-rule="evenodd" d="M160.68,163.34c-3.67,0-6.65,2.98-6.65,6.66c0,3.68,2.98,6.66,6.65,6.66
		c3.68,0,6.66-2.98,6.66-6.66C167.34,166.32,164.36,163.34,160.68,163.34z"/>
	<path fill-rule="evenodd" clip-rule="evenodd" d="M53.46,162.51c-3.67,0-6.65,2.98-6.65,6.66c0,3.68,2.98,6.66,6.65,6.66
		c3.68,0,6.66-2.98,6.66-6.66C60.12,165.49,57.14,162.51,53.46,162.51z"/>
	<path fill-rule="evenodd" clip-rule="evenodd" d="M166.12,0H48.88C21.89,0,0,21.89,0,48.89v117.23c0,27,21.89,48.88,48.88,48.88
		h117.24c27,0,48.88-21.88,48.88-48.88V48.88C215,21.89,193.11,0,166.12,0z M134.43,57.85c5.36,0,9.7,4.34,9.7,9.7
		c0,5.36-4.34,9.7-9.7,9.7c-5.36,0-9.7-4.34-9.7-9.7C124.73,62.19,129.07,57.85,134.43,57.85z M134.43,85.25
		c5.36,0,9.7,4.34,9.7,9.7s-4.34,9.7-9.7,9.7c-5.36,0-9.7-4.34-9.7-9.7S129.07,85.25,134.43,85.25z M107.09,57.85
		c5.36,0,9.7,4.34,9.7,9.7c0,5.36-4.34,9.7-9.7,9.7c-5.36,0-9.7-4.34-9.7-9.7C97.39,62.19,101.73,57.85,107.09,57.85z M107.09,85.25
		c5.36,0,9.7,4.34,9.7,9.7s-4.34,9.7-9.7,9.7c-5.36,0-9.7-4.34-9.7-9.7S101.73,85.25,107.09,85.25z M79.75,57.85
		c5.36,0,9.7,4.34,9.7,9.7c0,5.36-4.34,9.7-9.7,9.7c-5.36,0-9.7-4.34-9.7-9.7C70.05,62.19,74.39,57.85,79.75,57.85z M79.75,85.25
		c5.36,0,9.7,4.34,9.7,9.7s-4.34,9.7-9.7,9.7c-5.36,0-9.7-4.34-9.7-9.7S74.39,85.25,79.75,85.25z M53.46,187.72
		c-10.24,0-18.55-8.31-18.55-18.55c0-10.25,8.31-18.56,18.55-18.56c10.25,0,18.56,8.31,18.56,18.56
		C72.03,179.41,63.71,187.72,53.46,187.72z M160.68,188.55c-10.24,0-18.55-8.31-18.55-18.55c0-10.25,8.31-18.56,18.55-18.56
		c10.25,0,18.56,8.31,18.56,18.56C179.24,180.24,170.93,188.55,160.68,188.55z M193.27,37.66l-19.18,71.44
		c-5.12,19.07-21.28,31.04-41.03,31.04h-12.65c-4.18,0-10.23-2.26-12.74-4.62c-0.42-0.39-1.08-0.39-1.5,0
		c-2.51,2.36-8.56,4.62-12.74,4.62h-13.9c-19.12,0-33.61-10.9-39.41-29.12L23.81,59.86c-0.32-1.02-0.15-2.1,0.49-2.97
		c0.63-0.86,1.6-1.36,2.69-1.36l3.12,0.01c7.52,0.03,14.11,4.86,16.38,12.02l11.98,37.62c3.24,10.19,13.61,17.04,24.3,17.04
		l4.65-0.01c4.8,0,8.18-2.46,10.22-4.66c1.06-1.15,2.54-1.82,4.11-1.82l10.44,0.01c1.48,0,2.92,0.59,3.91,1.68
		c1.98,2.17,5.49,4.79,10.33,4.79l4.43,0.01c11.04,0,21.75-7.45,24.62-18.11l15.53-57.84c2.03-7.53,8.88-12.78,16.67-12.78l2.74,0
		c0.26,0,0.52,0.04,0.76,0.14C192.93,34.37,193.7,36.08,193.27,37.66z"/>
</g>
</svg>
