<?xml version="1.0" encoding="utf-8"?>
<!-- Generator: Adobe Illustrator 18.0.0, SVG Export Plug-In . SVG Version: 6.00 Build 0)  -->
<svg version="1.1" id="Layer_1" xmlns="http://www.w3.org/2000/svg" xmlns:xlink="http://www.w3.org/1999/xlink" x="0px" y="0px" viewBox="0 0 143 168" enable-background="new 0 0 143 168" xml:space="preserve">
<path class="categories" fill="#D1ECF5" d="M41,49.1H2c-1.1,0-2,0.9-2,2.1V56c0,1.1,0.9,2.1,2,2.1H41c1.1,0,2-0.9,2-2.1v-4.8C43,50,42.1,49.1,41,49.1z"></path>
<path class="categories" fill="#D1ECF5" d="M91,49H52c-1.1,0-2,0.9-2,2.1v4.8c0,1.1,0.9,2.1,2,2.1H91c1.1,0,2-0.9,2-2.1v-4.8C93,49.9,92.1,49,91,49z"></path>
<path class="categories" fill="#D1ECF5" d="M141,49H102c-1.1,0-2,0.9-2,2.1v4.8c0,1.1,0.9,2.1,2,2.1H141c1.1,0,2-0.9,2-2.1v-4.8
	C143,49.9,142.1,49,141,49z"></path>

<path class="minicart" fill="#D1ECF5" d="M115.2,8.9c0.8,0,1.5-0.6,1.5-1.4c0-3.7,0.6-4.6,4.3-4.6c3.7,0,4.3,0.9,4.3,4.6c0,0.8,0.7,1.4,1.5,1.4
	c0.8,0,1.4-0.6,1.4-1.4c0-2.3,0.1-7.5-7.2-7.5c-7.3,0-7.2,5.2-7.2,7.5C113.9,8.3,114.4,8.9,115.2,8.9z"></path>
<path class="minicart" fill="#D1ECF5" d="M139.7,33.2l-4.6-21.9c-0.1-0.6-0.6-1.1-1.2-1.1h-25.6c-0.6,0-1.2,0.5-1.2,1.1l-4.6,21.9
	c-0.1,1,0.4,1.8,1.2,1.8h34.9C139.3,35,139.8,34.2,139.7,33.2z M114.6,16c-1.2,0-2.2-1-2.2-2.2s1-2.2,2.2-2.2s2.2,1,2.2,2.2
	S115.8,16,114.6,16z M127.6,16c-1.2,0-2.2-1-2.2-2.2s1-2.2,2.2-2.2c1.2,0,2.2,1,2.2,2.2S128.8,16,127.6,16z"></path>

<path class="productbrowser" fill="#D1ECF5" d="M40.1,72H2.9C1.4,72,0,73.4,0,74.9v39.2c0,1.5,1.4,2.9,2.9,2.9h37.3c1.4,0,2.9-1.4,2.9-2.9V74.9
	C43,73.4,41.6,72,40.1,72z M30.1,112.6c0,1.3,0,1.5-1.4,1.5H14.3c-1.5,0-1.4-0.1-1.4-1.5v-4.4c0-1.3,0-1.5,1.4-1.5h14.3
	c1.5,0,1.4,0.1,1.4,1.5V112.6z"></path>
<path class="productbrowser" fill="#D1ECF5" d="M90.1,72H52.9c-1.4,0-2.9,1.4-2.9,2.9v39.2c0,1.5,1.4,2.9,2.9,2.9h37.3c1.4,0,2.9-1.4,2.9-2.9V74.9
	C93,73.4,91.6,72,90.1,72z M80.1,112.6c0,1.3,0,1.5-1.4,1.5H64.3c-1.5,0-1.4-0.1-1.4-1.5v-4.4c0-1.3,0-1.5,1.4-1.5h14.3
	c1.5,0,1.4,0.1,1.4,1.5V112.6z"></path>
<path class="productbrowser" fill="#D1ECF5" d="M140.1,72h-37.3c-1.4,0-2.9,1.4-2.9,2.9v39.2c0,1.5,1.4,2.9,2.9,2.9h37.3c1.4,0,2.9-1.4,2.9-2.9V74.9
	C143,73.4,141.6,72,140.1,72z M130.1,112.6c0,1.3,0,1.5-1.4,1.5h-14.3c-1.5,0-1.4-0.1-1.4-1.5v-4.4c0-1.3,0-1.5,1.4-1.5h14.3
	c1.5,0,1.4,0.1,1.4,1.5V112.6z"></path>
<path class="productbrowser" fill="#D1ECF5" d="M40.1,123H2.9c-1.4,0-2.9,1.4-2.9,2.9v39.2c0,1.5,1.4,2.9,2.9,2.9h37.3c1.4,0,2.9-1.4,2.9-2.9v-39.2
	C43,124.4,41.6,123,40.1,123z M30.1,163.6c0,1.3,0,1.5-1.4,1.5H14.3c-1.5,0-1.4-0.1-1.4-1.5v-4.4c0-1.3,0-1.5,1.4-1.5h14.3
	c1.5,0,1.4,0.1,1.4,1.5V163.6z"></path>
<path class="productbrowser" fill="#D1ECF5" d="M90.1,123H52.9c-1.4,0-2.9,1.4-2.9,2.9v39.2c0,1.5,1.4,2.9,2.9,2.9h37.3c1.4,0,2.9-1.4,2.9-2.9v-39.2
	C93,124.4,91.6,123,90.1,123z M80.1,163.6c0,1.3,0,1.5-1.4,1.5H64.3c-1.5,0-1.4-0.1-1.4-1.5v-4.4c0-1.3,0-1.5,1.4-1.5h14.3
	c1.5,0,1.4,0.1,1.4,1.5V163.6z"></path>
<path class="productbrowser" fill="#D1ECF5" d="M140.1,123h-37.3c-1.4,0-2.9,1.4-2.9,2.9v39.2c0,1.5,1.4,2.9,2.9,2.9h37.3c1.4,0,2.9-1.4,2.9-2.9v-39.2
	C143,124.4,141.6,123,140.1,123z M130.1,163.6c0,1.3,0,1.5-1.4,1.5h-14.3c-1.5,0-1.4-0.1-1.4-1.5v-4.4c0-1.3,0-1.5,1.4-1.5h14.3
	c1.5,0,1.4,0.1,1.4,1.5V163.6z"></path>

<path class="search" fill="#D1ECF5" d="M38.2,31.3c0.5,0.5,0.8,1.2,0.8,1.9c0,0.7-0.3,1.4-0.8,1.9C37.6,35.7,37,36,36.3,36c-0.8,0-1.4-0.3-1.9-0.8
	L27,27.9c-2.5,1.8-5.4,2.6-8.5,2.6c-2,0-4-0.4-5.8-1.2c-1.9-0.8-3.5-1.9-4.8-3.2c-1.3-1.3-2.4-2.9-3.2-4.8c-0.8-1.9-1.2-3.8-1.2-5.8
	s0.4-4,1.2-5.8c0.8-1.9,1.9-3.5,3.2-4.8c1.3-1.3,2.9-2.4,4.8-3.2c1.9-0.8,3.8-1.2,5.8-1.2s4,0.4,5.8,1.2c1.9,0.8,3.5,1.9,4.8,3.2
	c1.3,1.3,2.4,2.9,3.2,4.8c0.8,1.9,1.2,3.8,1.2,5.8c0,3.1-0.9,6-2.6,8.5L38.2,31.3L38.2,31.3z M25.3,22.3c1.9-1.9,2.8-4.1,2.8-6.8
	c0-2.6-0.9-4.9-2.8-6.8c-1.9-1.9-4.1-2.8-6.8-2.8c-2.6,0-4.9,0.9-6.8,2.8c-1.9,1.9-2.8,4.1-2.8,6.8c0,2.6,0.9,4.9,2.8,6.8
	c1.9,1.9,4.1,2.8,6.8,2.8C21.1,25.1,23.4,24.1,25.3,22.3z"></path>
</svg>