<?xml version="1.0" encoding="UTF-8" standalone="no"?>
<svg width="136" height="42" viewBox="0 0 136 42" xmlns="http://www.w3.org/2000/svg" xmlns:xlink="http://www.w3.org/1999/xlink"><title>black get it on google</title><defs><linearGradient x1="19.215%" y1="-35.157%" x2="69.302%" y2="93.537%" id="b"><stop stop-color="#19A3B4" offset="0%"/><stop stop-color="#5BC3AF" offset="34.817%"/><stop stop-color="#C9F7A6" offset="92.234%"/><stop stop-color="#D7FEA5" offset="100%"/></linearGradient><path id="a" d="M13.983 7.228L1.547.216C1.194.018.87-.028.607.056L10.79 10.502l3.19-3.272"/><linearGradient x1="-14.698%" y1="-114.322%" x2="74.844%" y2="114.156%" id="c"><stop stop-color="#FC227C" offset="0%"/><stop stop-color="#FEEB7B" offset="100%"/></linearGradient><linearGradient x1="28.151%" y1="-14.814%" x2="48.188%" y2="82.894%" id="e"><stop stop-color="#0E4DA0" offset="0%"/><stop stop-color="#6BFED4" offset="100%"/></linearGradient><path id="d" d="M.605.057C.227.177-.018.57-.018 1.165l.002 18.697c0 .587.238.974.605 1.103L10.79 10.503.605.057"/><linearGradient x1="132.245%" y1="16.466%" x2="5.959%" y2="126.31%" id="g"><stop stop-color="#FC472E" offset="0%"/><stop stop-color="#FC472E" offset=".332%"/><stop stop-color="#893CD8" offset="100%"/></linearGradient><path id="f" d="M.59 20.965c.264.092.596.05.957-.154l12.45-7.02-3.205-3.287L.59 20.965"/><path id="h" d="M0 .054h91.96V18H0V.054z"/><path id="j" d="M0 .143h38.904V7H0V.143z"/><path id="l" d="M0 .143h38.904V7H0V.143z"/></defs><g fill="none" fill-rule="evenodd"><rect fill="#000" width="136" height="42" rx="7"/><g transform="translate(11 15)"><use fill="url(#b)" xlink:href="#a"/><path d="M14 13.79l4.244-2.394c.86-.487.86-1.28 0-1.765l-4.26-2.402L10.79 10.5 14 13.79" fill="url(#c)"/><use fill="url(#e)" xlink:href="#d"/><use fill="url(#g)" xlink:href="#f"/></g><g transform="translate(35 18)"><path d="M13.32 6.392H6.996v1.895h4.484c-.22 2.658-2.41 3.79-4.475 3.79-2.643 0-4.95-2.1-4.95-5.045 0-2.868 2.2-5.077 4.956-5.077 2.127 0 3.38 1.37 3.38 1.37l1.314-1.375S10.018.054 6.944.054C3.03.054 0 3.392 0 6.998c0 3.534 2.85 6.98 7.043 6.98 3.69 0 6.39-2.554 6.39-6.33 0-.796-.115-1.257-.115-1.257v.002zM18.692 5.02c-2.594 0-4.453 2.048-4.453 4.438 0 2.424 1.802 4.51 4.482 4.51 2.427 0 4.414-1.872 4.414-4.458 0-2.964-2.312-4.49-4.444-4.49m.026 1.757c1.275 0 2.484 1.042 2.484 2.72 0 1.644-1.204 2.716-2.49 2.716-1.414 0-2.53-1.144-2.53-2.728 0-1.55 1.103-2.708 2.536-2.708M28.48 5.02c-2.593 0-4.452 2.048-4.452 4.438 0 2.424 1.803 4.51 4.483 4.51 2.428 0 4.415-1.872 4.415-4.458 0-2.964-2.312-4.49-4.444-4.49m.027 1.757c1.275 0 2.484 1.042 2.484 2.72 0 1.644-1.203 2.716-2.49 2.716-1.413 0-2.528-1.144-2.528-2.728 0-1.55 1.102-2.708 2.535-2.708M38.07 5.024c-2.38 0-4.253 2.107-4.253 4.47 0 2.695 2.17 4.48 4.21 4.48 1.264 0 1.935-.505 2.43-1.086v.882c0 1.544-.927 2.47-2.328 2.47-1.354 0-2.032-1.018-2.268-1.595l-1.703.72c.603 1.29 1.82 2.635 3.983 2.635 2.367 0 4.17-1.506 4.17-4.666v-8.04h-1.856v.757c-.57-.62-1.35-1.026-2.388-1.026zm.172 1.754c1.167 0 2.365 1.007 2.365 2.727 0 1.748-1.196 2.71-2.39 2.71-1.27 0-2.45-1.04-2.45-2.694 0-1.717 1.225-2.742 2.475-2.742zM50.962 5.013c-2.246 0-4.132 1.805-4.132 4.47 0 2.818 2.102 4.49 4.347 4.49 1.874 0 3.024-1.036 3.71-1.964l-1.53-1.03c-.398.622-1.062 1.23-2.17 1.23-1.245 0-1.818-.688-2.173-1.355l5.94-2.49-.31-.73c-.573-1.428-1.91-2.622-3.682-2.622zm.077 1.72c.808 0 1.39.436 1.638.957l-3.966 1.675c-.17-1.297 1.045-2.63 2.327-2.63z" fill="#FFF"/><mask id="i" fill="#fff"><use xlink:href="#h"/></mask><path d="M43.804 13.707h1.95V.517h-1.95v13.19zM69.96 13.707h1.95V.517h-1.95v13.19zM64.333 6.95h-2.77V2.487h2.77c1.21 0 2.208 1.007 2.208 2.23 0 1.224-.997 2.23-2.207 2.23m0-6.43h-4.72V13.707h1.95V8.92h2.77c2.287 0 4.16-1.89 4.16-4.2 0-2.312-1.873-4.203-4.16-4.203M89.83 5.013l-2.556 5.877-2.556-5.877h-2.13l3.62 8.327L84.183 18h2.13l5.65-12.987H89.83zM79.893 9.894c-.25 1.097-1.09 1.886-2.16 2.18-2.254.62-2.815-3.082.537-2.573.575.07 1.078.215 1.623.394zm0 3.813h1.95V8.963c.306-4.893-5.833-6.044-8.156-2.516l1.57 1.064c1.136-2.006 4.377-1.544 4.59.606-.974-.26-2.027-.45-2.988-.35-1.502.152-2.787 1.115-2.99 2.693-.11.85.077 1.902.666 2.542.918.997 2.424 1.132 3.662.79.697-.19 1.246-.61 1.695-1.15v1.065z" fill="#FFF" mask="url(#i)"/></g><g transform="translate(35 6)"><mask id="k" fill="#fff"><use xlink:href="#j"/></mask><path d="M6.314 3.264H3.317v.934h2.125C5.337 5.506 4.3 6.064 3.322 6.064 2.067 6.064.974 5.03.974 3.58c0-1.413 1.042-2.5 2.348-2.5 1.01 0 1.603.674 1.603.674l.622-.677s-.8-.934-2.256-.934C1.436.143 0 1.787 0 3.563 0 5.303 1.35 7 3.34 7c1.748 0 3.028-1.257 3.028-3.117 0-.392-.055-.62-.055-.62z" fill="#FFF" mask="url(#k)"/><mask id="m" fill="#fff"><use xlink:href="#l"/></mask><path d="M18.56 6.867h.926V.37h-.925v6.497zM13.382 6.867h.925V1.342h1.518v-.97h-3.96v.97h1.517v5.525zM7.343 6.867h3.546v-.97H8.266V4.103h2.307v-.97H8.267V1.342h2.622v-.97H7.342v6.495zM21.757 6.867h.924V1.342h1.52v-.97h-3.96v.97h1.517v5.525zM29.87.143c-1.855 0-3.29 1.644-3.29 3.42 0 1.726 1.328 3.41 3.29 3.436 1.963-.027 3.292-1.71 3.292-3.437 0-1.776-1.436-3.42-3.292-3.42m0 5.92c-1.24-.015-2.317-1.044-2.317-2.483 0-1.4 1.026-2.483 2.317-2.5 1.292.017 2.317 1.1 2.317 2.5 0 1.44-1.076 2.468-2.317 2.484M34.086 6.867h.925V2.135l2.97 4.732h.924V.37h-.925V5.1L35.01.37h-.924v6.497z" fill="#FFF" mask="url(#m)"/></g></g></svg>