<?xml version="1.0" encoding="UTF-8" standalone="no"?>
<svg width="136" height="42" viewBox="0 0 136 42" xmlns="http://www.w3.org/2000/svg"><title>black download on the app store</title><g fill="none" fill-rule="evenodd"><g><rect fill="#050708" width="136" height="42" rx="7"/><path d="M30.045 20.85c-.03-3.496 2.806-5.197 2.936-5.276-1.606-2.39-4.097-2.716-4.972-2.742-2.092-.225-4.12 1.277-5.187 1.277-1.086 0-2.727-1.257-4.496-1.22-2.276.036-4.405 1.38-5.573 3.468-2.41 4.255-.612 10.51 1.697 13.95 1.155 1.684 2.505 3.565 4.272 3.5 1.727-.073 2.373-1.125 4.458-1.125 2.067 0 2.673 1.124 4.475 1.082 1.854-.03 3.022-1.692 4.137-3.392 1.335-1.93 1.87-3.833 1.892-3.93-.044-.016-3.602-1.4-3.637-5.592zM26.276 10.396c.873-1.113 1.47-2.627 1.304-4.164-1.263.057-2.844.89-3.754 1.98-.806.96-1.525 2.532-1.34 4.01 1.42.11 2.878-.73 3.79-1.826z" fill="#FFF"/></g><g fill="#FFF"><path d="M50.698 32.17h-2.39L47 27.992h-4.55l-1.245 4.178H38.88l4.505-14.223h2.784l4.528 14.223zm-4.092-5.93l-1.184-3.714c-.125-.38-.36-1.273-.706-2.68h-.042c-.138.605-.36 1.5-.665 2.68l-1.163 3.713h3.76zM62.288 26.916c0 1.744-.464 3.123-1.392 4.135-.83.902-1.863 1.352-3.095 1.352-1.33 0-2.284-.485-2.866-1.456h-.042v5.403H52.65V25.29c0-1.096-.03-2.222-.084-3.376h1.973l.124 1.626h.042c.748-1.225 1.883-1.836 3.406-1.836 1.19 0 2.185.477 2.98 1.434.798.957 1.196 2.216 1.196 3.778zM60.003 27c0-1-.22-1.822-.665-2.47-.485-.675-1.136-1.013-1.953-1.013-.553 0-1.056.188-1.505.56-.45.373-.745.862-.883 1.467-.07.282-.104.513-.104.694v1.71c0 .746.225 1.376.676 1.89.45.514 1.034.77 1.753.77.845 0 1.502-.33 1.973-.99.47-.663.707-1.535.707-2.62zM73.898 26.916c0 1.744-.464 3.123-1.393 4.135-.83.902-1.862 1.352-3.093 1.352-1.33 0-2.285-.485-2.866-1.456h-.042v5.403H64.26V25.29c0-1.096-.027-2.222-.082-3.376h1.972l.126 1.626h.042c.747-1.225 1.882-1.836 3.406-1.836 1.19 0 2.184.477 2.98 1.434.796.957 1.194 2.216 1.194 3.778zM71.613 27c0-1-.222-1.822-.666-2.47-.484-.675-1.134-1.013-1.95-1.013-.555 0-1.057.188-1.507.56-.45.373-.744.862-.882 1.467-.068.282-.104.513-.104.694v1.71c0 .746.225 1.376.673 1.89.45.513 1.035.77 1.757.77.845 0 1.502-.33 1.972-.99.472-.663.707-1.535.707-2.62zM86.88 28.18c0 1.21-.414 2.195-1.244 2.955-.912.83-2.18 1.245-3.813 1.245-1.507 0-2.714-.295-3.628-.886l.52-1.9c.984.606 2.064.91 3.24.91.846 0 1.504-.195 1.976-.582.47-.387.706-.906.706-1.554 0-.577-.194-1.063-.582-1.457-.386-.394-1.03-.76-1.93-1.1-2.452-.928-3.677-2.288-3.677-4.078 0-1.17.43-2.127 1.29-2.873.855-.748 1.998-1.12 3.426-1.12 1.274 0 2.332.224 3.177.674l-.56 1.858c-.79-.437-1.682-.655-2.68-.655-.79 0-1.405.198-1.847.59-.374.353-.56.782-.56 1.29 0 .56.213 1.026.642 1.392.373.337 1.052.702 2.036 1.096 1.206.493 2.09 1.07 2.66 1.73.567.658.85 1.482.85 2.465zM94.295 23.624h-2.472v4.98c0 1.266.436 1.9 1.31 1.9.4 0 .732-.037.995-.107l.062 1.73c-.442.168-1.024.252-1.744.252-.886 0-1.578-.275-2.078-.824-.497-.55-.748-1.47-.748-2.764v-5.17h-1.473v-1.71h1.473v-1.878l2.203-.675v2.552h2.472v1.712zM105.45 26.958c0 1.576-.445 2.87-1.33 3.882-.93 1.042-2.162 1.562-3.7 1.562-1.48 0-2.66-.5-3.54-1.497-.878-1-1.318-2.26-1.318-3.777 0-1.59.452-2.89 1.36-3.904.906-1.013 2.128-1.52 3.665-1.52 1.48 0 2.673.5 3.573 1.5.86.968 1.29 2.22 1.29 3.754zm-2.328.073c0-.944-.198-1.756-.6-2.432-.472-.82-1.144-1.227-2.015-1.227-.9 0-1.586.41-2.056 1.228-.402.677-.6 1.5-.6 2.476 0 .946.198 1.757.6 2.433.486.818 1.163 1.227 2.037 1.227.856 0 1.53-.417 2.014-1.25.414-.688.622-1.508.622-2.453zM112.74 23.918c-.222-.042-.46-.063-.707-.063-.79 0-1.4.302-1.83.908-.372.535-.56 1.21-.56 2.026v5.38h-2.24l.02-7.026c0-1.182-.028-2.258-.084-3.23h1.952l.082 1.963h.062c.237-.674.61-1.217 1.122-1.624.5-.367 1.04-.55 1.62-.55.208 0 .395.016.562.042v2.173zM122.77 26.557c0 .408-.026.752-.082 1.033h-6.728c.026 1.013.35 1.788.976 2.323.567.477 1.3.717 2.2.717.997 0 1.906-.162 2.723-.485l.35 1.58c-.955.425-2.082.635-3.384.635-1.565 0-2.794-.468-3.688-1.403-.892-.935-1.34-2.19-1.34-3.766 0-1.546.417-2.834 1.25-3.86.87-1.097 2.047-1.646 3.528-1.646 1.455 0 2.556.55 3.304 1.645.593.87.89 1.948.89 3.227zm-2.138-.59c.014-.677-.132-1.26-.436-1.753-.388-.634-.985-.95-1.787-.95-.734 0-1.33.31-1.786.93-.374.49-.596 1.082-.664 1.77h4.672v.002z"/></g><g fill="#FFF"><path d="M45.864 9.947c0 1.258-.37 2.205-1.113 2.84-.686.588-1.662.882-2.927.882-.627 0-1.163-.03-1.612-.085V6.712c.587-.096 1.218-.145 1.9-.145 1.204 0 2.112.266 2.724.798.686.602 1.03 1.462 1.03 2.582zm-1.162.03c0-.814-.213-1.44-.638-1.876-.425-.434-1.046-.652-1.863-.652-.346 0-.642.024-.887.073v5.226c.136.022.384.03.745.03.844 0 1.495-.237 1.953-.714.46-.476.692-1.17.692-2.084zM52.028 11.046c0 .775-.218 1.41-.654 1.908-.456.51-1.06.767-1.817.767-.727 0-1.307-.244-1.74-.735-.43-.49-.646-1.11-.646-1.856 0-.78.223-1.42.67-1.918.445-.497 1.044-.746 1.8-.746.728 0 1.312.245 1.755.735.42.478.633 1.093.633 1.846zm-1.144.036c0-.465-.1-.863-.296-1.196-.23-.402-.56-.603-.988-.603-.443 0-.78.2-1.01.603-.2.333-.297.738-.297 1.216 0 .465.1.864.296 1.196.237.402.57.603 1 .603.42 0 .75-.203.988-.612.204-.34.306-.74.306-1.206zM60.292 8.568l-1.552 5.04h-1.01l-.642-2.19c-.163-.545-.296-1.088-.4-1.627h-.02c-.095.555-.227 1.097-.398 1.63l-.683 2.187h-1.02l-1.46-5.04h1.133l.56 2.396c.136.567.248 1.107.337 1.618h.02c.082-.42.218-.957.41-1.606l.703-2.405h.9l.673 2.353c.163.574.296 1.126.398 1.66h.03c.076-.52.188-1.072.338-1.66l.6-2.354h1.084v-.002zM66.007 13.607h-1.102V10.72c0-.888-.333-1.333-1-1.333-.327 0-.59.122-.796.367-.204.244-.307.533-.307.863v2.988H61.7v-3.597c0-.442-.013-.922-.04-1.442h.97l.05.788h.03c.13-.245.32-.447.573-.608.298-.188.633-.283 1-.283.462 0 .847.15 1.153.456.38.372.57.93.57 1.668v3.02zM69.048 13.607h-1.102v-7.35h1.102v7.35zM75.538 11.046c0 .775-.217 1.41-.653 1.908-.457.51-1.062.767-1.817.767-.73 0-1.308-.244-1.74-.735-.43-.49-.647-1.11-.647-1.856 0-.78.223-1.42.67-1.918.445-.497 1.045-.746 1.8-.746.728 0 1.312.245 1.756.735.42.478.632 1.093.632 1.846zm-1.144.036c0-.465-.1-.863-.296-1.196-.23-.402-.56-.603-.988-.603-.444 0-.78.2-1.01.603-.198.333-.296.738-.296 1.216 0 .465.1.864.295 1.196.238.402.57.603 1 .603.42 0 .75-.203.988-.612.205-.34.306-.74.306-1.206zM80.874 13.607h-.99l-.082-.58h-.03c-.34.462-.822.694-1.45.694-.467 0-.846-.152-1.13-.455-.26-.276-.39-.62-.39-1.026 0-.617.253-1.086.76-1.41.508-.326 1.222-.485 2.14-.478v-.094c0-.664-.343-.995-1.03-.995-.49 0-.92.125-1.293.373l-.225-.735c.46-.29 1.03-.434 1.7-.434 1.297 0 1.947.695 1.947 2.084v1.855c0 .504.025.904.072 1.202zm-1.145-1.732v-.777c-1.217-.02-1.825.318-1.825 1.015 0 .263.07.46.212.59.142.133.323.198.538.198.242 0 .468-.077.675-.232.207-.156.334-.354.382-.596.01-.055.017-.12.017-.197zM87.14 13.607h-.98l-.05-.81h-.032c-.312.616-.845.924-1.593.924-.597 0-1.095-.237-1.49-.714-.394-.477-.59-1.096-.59-1.855 0-.815.213-1.475.642-1.98.416-.47.925-.705 1.53-.705.667 0 1.133.227 1.398.684h.02V6.256H87.1v5.992c0 .49.012.942.04 1.357zm-1.144-2.125v-.84c0-.146-.01-.263-.03-.353-.062-.27-.196-.497-.4-.68-.204-.182-.45-.274-.737-.274-.412 0-.734.165-.97.498-.235.332-.354.757-.354 1.275 0 .497.113.9.34 1.212.238.33.56.497.962.497.362 0 .652-.14.87-.416.214-.255.318-.563.318-.922zM96.567 11.046c0 .775-.217 1.41-.653 1.908-.456.51-1.06.767-1.817.767-.726 0-1.306-.244-1.74-.735-.43-.49-.647-1.11-.647-1.856 0-.78.222-1.42.668-1.918.447-.497 1.046-.746 1.803-.746.727 0 1.313.245 1.755.735.42.478.632 1.093.632 1.846zm-1.142.036c0-.465-.1-.863-.296-1.196-.233-.402-.56-.603-.99-.603-.442 0-.78.2-1.01.603-.2.333-.297.738-.297 1.216 0 .465.1.864.296 1.196.237.402.57.603 1 .603.42 0 .75-.203.99-.612.202-.34.305-.74.305-1.206zM102.495 13.607h-1.1V10.72c0-.888-.333-1.333-1-1.333-.33 0-.593.122-.797.367-.204.244-.306.533-.306.863v2.988H98.19v-3.597c0-.442-.014-.922-.04-1.442h.967l.052.788h.03c.13-.245.32-.447.57-.608.3-.188.634-.283 1-.283.463 0 .848.15 1.154.456.382.372.57.93.57 1.668v3.02zM109.915 9.407H108.7v2.448c0 .622.217.933.644.933.198 0 .362-.017.49-.053l.03.85c-.218.084-.504.125-.857.125-.435 0-.774-.134-1.02-.404-.245-.27-.367-.722-.367-1.358v-2.54h-.725v-.84h.725v-.923l1.08-.33v1.252h1.214v.84zM115.75 13.607h-1.102v-2.865c0-.903-.332-1.355-.998-1.355-.512 0-.86.262-1.052.786-.033.11-.052.244-.052.403v3.03h-1.1v-7.35h1.1v3.037h.02c.348-.553.846-.828 1.49-.828.457 0 .835.152 1.135.456.374.38.56.945.56 1.69v2.997zM121.772 10.85c0 .2-.015.37-.04.507h-3.307c.014.498.172.877.478 1.14.28.235.64.353 1.083.353.49 0 .935-.08 1.337-.238l.172.778c-.47.207-1.023.31-1.664.31-.767 0-1.372-.23-1.81-.69-.44-.458-.657-1.075-.657-1.85 0-.76.203-1.39.612-1.896.427-.538 1.005-.808 1.734-.808.712 0 1.254.27 1.62.808.296.428.442.957.442 1.585zm-1.052-.29c.008-.333-.064-.62-.214-.86-.19-.312-.482-.468-.877-.468-.36 0-.654.152-.878.456-.183.243-.292.533-.327.872h2.295z"/></g></g></svg>

