<?xml version="1.0" encoding="utf-8"?>
<!-- Generator: Adobe Illustrator 18.0.0, SVG Export Plug-In . SVG Version: 6.00 Build 0)  -->
<!DOCTYPE svg PUBLIC "-//W3C//DTD SVG 1.1//EN" "http://www.w3.org/Graphics/SVG/1.1/DTD/svg11.dtd">
<svg version="1.1" id="Layer_1" xmlns="http://www.w3.org/2000/svg" xmlns:xlink="http://www.w3.org/1999/xlink" x="0px" y="0px"
	 viewBox="0 0 143 168" enable-background="new 0 0 143 168" xml:space="preserve">
<path fill="#D1ECF5" d="M41,49.1H2c-1.1,0-2,0.9-2,2.1V56c0,1.1,0.9,2.1,2,2.1H41c1.1,0,2-0.9,2-2.1v-4.8C43,50,42.1,49.1,41,49.1z"
	/>
<path fill="#D1ECF5" d="M91,49H52c-1.1,0-2,0.9-2,2.1v4.8c0,1.1,0.9,2.1,2,2.1H91c1.1,0,2-0.9,2-2.1v-4.8C93,49.9,92.1,49,91,49z"/>
<path fill="#D1ECF5" d="M141,49H102c-1.1,0-2,0.9-2,2.1v4.8c0,1.1,0.9,2.1,2,2.1H141c1.1,0,2-0.9,2-2.1v-4.8
	C143,49.9,142.1,49,141,49z"/>
</svg>
