<svg xmlns="http://www.w3.org/2000/svg" viewBox="0 0 112 24"><path d="M18.5436279 0H5.45637209C2.44353488 0 0 2.44353488 0 5.45748837V18.5436279C0 21.5575814 2.44353488 24 5.45637209 24H18.5436279C21.5575814 24 24 21.5575814 24 18.5436279V5.45637209C24 2.44353488 21.5564651 0 18.5436279 0zm-3.5374884 6.45767442c.5983256 0 1.0827907.48446511 1.0827907 1.0827907 0 .59832558-.4844651 1.08279069-1.0827907 1.08279069-.5983255 0-1.0827907-.48446511-1.0827907-1.08279069 0-.59832559.4844652-1.0827907 1.0827907-1.0827907zm0 3.05860465c.5983256 0 1.0827907.48446513 1.0827907 1.08279073 0 .5983255-.4844651 1.0827907-1.0827907 1.0827907-.5983255 0-1.0827907-.4844652-1.0827907-1.0827907 0-.5983256.4844652-1.08279073 1.0827907-1.08279073zm-3.0519069-3.05860465c.5983255 0 1.0827907.48446511 1.0827907 1.0827907 0 .59832558-.4844652 1.08279069-1.0827907 1.08279069-.5983256 0-1.0827907-.48446511-1.0827907-1.08279069 0-.59832559.4844651-1.0827907 1.0827907-1.0827907zm0 3.05860465c.5983255 0 1.0827907.48446513 1.0827907 1.08279073 0 .5983255-.4844652 1.0827907-1.0827907 1.0827907-.5983256 0-1.0827907-.4844652-1.0827907-1.0827907 0-.5983256.4844651-1.08279073 1.0827907-1.08279073zM8.90232558 6.45767442c.59832558 0 1.0827907.48446511 1.0827907 1.0827907 0 .59832558-.48446512 1.08279069-1.0827907 1.08279069s-1.0827907-.48446511-1.0827907-1.08279069c0-.59832559.48446512-1.0827907 1.0827907-1.0827907zm0 3.05860465c.59832558 0 1.0827907.48446513 1.0827907 1.08279073 0 .5983255-.48446512 1.0827907-1.0827907 1.0827907s-1.0827907-.4844652-1.0827907-1.0827907c0-.5983256.48446512-1.08279073 1.0827907-1.08279073zM5.96762791 20.9547907c-1.14306977 0-2.07069768-.9276279-2.07069768-2.0706977 0-1.144186.92762791-2.0718139 2.07069768-2.0718139 1.14418604 0 2.07181395.9276279 2.07181395 2.0718139.00111628 1.1430698-.92762791 2.0706977-2.07181395 2.0706977zm11.96874419.0926512c-1.1430698 0-2.0706977-.9276279-2.0706977-2.0706977 0-1.1441861.9276279-2.071814 2.0706977-2.071814 1.144186 0 2.0718139.9276279 2.0718139 2.071814 0 1.1430698-.9276279 2.0706977-2.0718139 2.0706977zm3.6379535-16.84353492l-2.1410233 7.97469772c-.5715349 2.1287441-2.3754418 3.4649302-4.580093 3.4649302h-1.412093c-.4666047 0-1.1419535-.2522791-1.4221396-.5157209-.0468837-.0435349-.1205581-.0435349-.1674418 0-.2801861.2634418-.9555349.5157209-1.4221396.5157209H8.87776744c-2.13432558 0-3.75181395-1.2167442-4.39925581-3.2506047L2.65786047 6.68204651c-.03572094-.11386046-.01674419-.2344186.05469767-.33153488.07032558-.096.17860465-.15181396.30027907-.15181396l.34827907.00111628c.83944186.00334884 1.57506977.54251163 1.82846512 1.34176745l1.33730232 4.1994419c.36167442 1.1374883 1.51925581 1.9021395 2.71255814 1.9021395l.51906977-.0011163c.53581397 0 .91311627-.2746046 1.14083717-.520186.1183256-.1283721.2835349-.2031628.4587907-.2031628l1.1653954.0011163c.1652093 0 .3259535.0658604.4364651.1875348.2210233.2422326.6128372.5346977 1.1531163.5346977l.4945116.0011163c1.2323721 0 2.427907-.8316279 2.7482791-2.0215814l1.7335814-6.45655814c.2266046-.84055814.9912558-1.42660466 1.8608372-1.42660466h.3058604c.0290233 0 .0580466.00446512.0848373.01562791.1953488.08260465.2813023.27348837.2333023.44986047z"></path><path d="M17.9363721 18.2333023c-.4096744 0-.7423256.3326512-.7423256.7434419s.3326512.7434418.7423256.7434418c.4107907 0 .7434419-.3326511.7434419-.7434418 0-.4107907-.3326512-.7434419-.7434419-.7434419zm-11.96874419-.0926511c-.40967442 0-.74232558.3326511-.74232558.7434418 0 .4107907.33265116.7434419.74232558.7434419.41079069 0 .74344186-.3326512.74344186-.7434419s-.33265117-.7434418-.74344186-.7434418zM64.313949 17.6616618c-.5400113 0-1.1303343-.0257816-1.3919547.4472553-.8206383 1.4863673-2.6944664 1.9526786-4.2340019 1.9526786-3.0623002 0-5.3889329-2.4940929-5.3889329-5.5598656s2.3266327-5.5598656 5.3889329-5.5598656c1.3606497 0 3.1316186.26342105 4.1825723 1.85627772.2973975.45061818.8854844.34749158 1.4254957.34749158.7569103 0 .5746705-.90459909.2772729-1.35633817-1.5294731-2.31810526-4.0439358-2.80571444-5.8842228-2.80571444-4.1400869 0-7.507611 3.37178947-7.507611 7.51590701 0 4.1441176 3.3686421 7.5159071 7.507611 7.5159071 2.6765779 0 4.9786138-1.1601736 6.0094429-3.0265398.2605023-.470795.4159093-1.3271937-.3846044-1.3271937zM92.5175222 7.37591041c-.5400113 0-.9771634.23763942-.9771634.77793282V21.1253684c0 .5402934.4371521.7084345.9771634.7084345s.9771634-.1681411.9771634-.7084345V8.15384323c.001118-.5402934-.4371521-.77793282-.9771634-.77793282zm0-6.37591041c-.684238 0-1.2410198.5571075-1.2410198 1.24312318s.5567818 1.24312318 1.2410198 1.24312318c.684238 0 1.2410198-.5571075 1.2410198-1.24312318C93.7596601 1.5571075 93.2028782 1 92.5175222 1zm-5.5320416 6.4498925c-.0190066 0-.0570198-.00224188-.0581378-.00224188-.0033541 0-.9212616 0-1.2007706.69946696-.2694466.67816909-1.7374277 5.30989582-3.2914976 9.82392382-.0503116.1468433-.1106856.2903237-.1665873.4338041L78.926678 9.98770213c-.1486988-.36094289-.3700699-.63221053-.6596412-.79474692-.1665873-.0964009-.3521813-.16365734-.5824967-.16365734-.002236 0-.0033541.00112094-.0055901.00112094-.0022361 0-.0033542-.00112094-.0055902-.00112094-.2303154 0-.4159094.06725644-.5824967.16365734-.2906894.16253639-.5109424.43268309-.6596412.79474692l-3.3418092 8.41714337c-.0559018-.1434804-.1162758-.2869608-.1665874-.4338041-1.5663683-4.551019-3.022051-9.14687567-3.2914976-9.82392382-.278391-.69946696-1.2387838-.69834602-1.2577904-.69722508-.4919358.01008846-.6875921.13899664-.6719396.45734378-.002236.07286114.0033541.15132699.0279509.24436506.0749084.28808175 2.4127215 7.43071556 4.3167366 12.85158456.124102.3530963.3924306.8552777 1.0263569.8552777.4203815 0 .7323135-.2779933.8452351-.5638331l3.5732427-9.1323035c.0346591-.0840706.1106856-.1255454.186712-.1277872.0771445.0022418.1531709.0437166.186712.1277872l3.5732427 9.1323035c.1129216.2858398.4472143.5638331.8452351.5638331.6462248 0 .9100812-.4988186 1.026357-.8552777C85.096 15.5587772 87.5512068 8.43968309 87.6261152 8.15160134c.0245968-.09303807.030187-.17150392.0279509-.24436506.0190066-.31834714-.1766497-.44725532-.6685855-.45734378zM48.3685212 19.8127469H35.55583003c-.21466289 0-.38795845-.1737458-.38795845-.3878454v-7.2693002H46.3694731c.5210047 0 .7502021-.4562228.7502021-1.018935 0-.56271221-.2291974-1.01893506-.7502021-1.01893506H35.16787158v-6.5328421c0-.22643001.18335788-.41026428.41031917-.41026428H48.3685212c.5210048 0 .7502021-.45622284.7502021-1.01893505 0-.5627122-.2291973-1.01893505-.7502021-1.01893505H33.92126157C33.36000755 1.13675476 33 1.6703225 33 2.50542329c0 0 .00111804 18.24667191.00111804 18.25788131.00894428.5414143.31640415 1.0884334.8228744 1.0884334H48.3685212c.5210048 0 .7502021-.4562229.7502021-1.0189351 0-.5638331-.2291973-1.020056-.7502021-1.020056zM110.95617 1c-.5400114 0-.9771634.23763942-.9771634.77793281v7.66723404c-1.1102096-1.81928667-3.2557205-2.44365061-5.1452011-2.44365061-4.1356148 0-7.4997847 3.36842665-7.4997847 7.50806046 0 4.1396338 3.3641699 7.5080605 7.4997847 7.5080605 1.6133258 0 4.1266704-.8104401 5.1452011-2.5703169v1.6500246c0 .0033628.0022361.0056047.0022361.0089675 0 .019056.0033541.0302654.0067082.0313864.0245968.5033023.4449783.6692015.9682191.6692015.5400113 0 .9771633-.1681411.9771633-.7084345V1.77793281c0-.5402934-.437152-.77793281-.9771633-.77793281zm-6.1234826 19.0627167c-3.0589461 0-5.3576279-2.4907301-5.3576279-5.55314 0-3.0624098 2.2986818-5.55313997 5.3576279-5.55313997 1.773205 0 5.1194863 1.06601456 5.1452012 5.03414447v.8967525c-.0245968 3.9042363-3.5385836 5.175383-5.1452012 5.175383z"></path></svg>