<?xml version="1.0" encoding="utf-8"?>
<!-- Generator: Adobe Illustrator 18.0.0, SVG Export Plug-In . SVG Version: 6.00 Build 0)  -->
<!DOCTYPE svg PUBLIC "-//W3C//DTD SVG 1.1//EN" "http://www.w3.org/Graphics/SVG/1.1/DTD/svg11.dtd">
<svg version="1.1" id="Layer_1" xmlns="http://www.w3.org/2000/svg" xmlns:xlink="http://www.w3.org/1999/xlink" x="0px" y="0px"
	 viewBox="0 0 215 215" enable-background="new 0 0 215 215" xml:space="preserve">
<g>
	<path fill-rule="evenodd" clip-rule="evenodd" fill="#0086CC" d="M215,166.12c0,27-21.88,48.88-48.88,48.88H48.88
		C21.89,215,0,193.11,0,166.12V48.89C0,21.89,21.89,0,48.88,0h117.23c27,0,48.88,21.89,48.88,48.88V166.12z"/>
	<path fill="#FFFFFF" d="M53.46,150.61c-10.24,0-18.55,8.31-18.55,18.56c0,10.23,8.31,18.55,18.55,18.55
		c10.25,0,18.56-8.31,18.56-18.55C72.03,158.92,63.71,150.61,53.46,150.61z M53.46,175.83c-3.67,0-6.65-2.98-6.65-6.66
		c0-3.68,2.98-6.66,6.65-6.66c3.68,0,6.66,2.98,6.66,6.66C60.12,172.85,57.14,175.83,53.46,175.83z"/>
	<path fill="#FFFFFF" d="M160.68,151.44c-10.24,0-18.55,8.31-18.55,18.56c0,10.23,8.31,18.55,18.55,18.55
		c10.25,0,18.56-8.31,18.56-18.55C179.24,159.76,170.93,151.44,160.68,151.44z M160.68,176.66c-3.67,0-6.65-2.98-6.65-6.66
		c0-3.68,2.98-6.66,6.65-6.66c3.68,0,6.66,2.98,6.66,6.66C167.34,173.68,164.36,176.66,160.68,176.66z"/>
	<path fill="#FFFFFF" d="M191.17,33.62c-0.24-0.1-0.5-0.14-0.76-0.14l-2.74,0c-7.79,0-14.64,5.26-16.67,12.78l-15.53,57.84
		c-2.86,10.67-13.58,18.11-24.62,18.11l-4.43-0.01c-4.84,0-8.36-2.62-10.33-4.79c-1-1.09-2.43-1.68-3.91-1.68l-10.44-0.01
		c-1.57,0-3.05,0.66-4.11,1.82c-2.03,2.21-5.42,4.66-10.22,4.66l-4.65,0.01c-10.69,0-21.06-6.85-24.3-17.04L46.49,67.56
		c-2.28-7.16-8.86-11.99-16.38-12.02l-3.12-0.01c-1.09,0-2.06,0.5-2.69,1.36c-0.63,0.86-0.81,1.95-0.49,2.97l16.29,51.17
		c5.81,18.22,20.3,29.12,39.41,29.12h13.9c4.18,0,10.23-2.26,12.74-4.62c0.42-0.39,1.08-0.39,1.5,0c2.51,2.36,8.56,4.62,12.74,4.62
		h12.65c19.74,0,35.9-11.97,41.03-31.04l19.18-71.44C193.7,36.08,192.93,34.37,191.17,33.62z"/>
	<g>
		<circle fill="#FFFFFF" cx="134.43" cy="94.95" r="9.7"/>
		<circle fill="#FFFFFF" cx="107.09" cy="94.95" r="9.7"/>
		<circle fill="#FFFFFF" cx="79.75" cy="94.95" r="9.7"/>
		<circle fill="#FFFFFF" cx="134.43" cy="67.55" r="9.7"/>
		<circle fill="#FFFFFF" cx="107.09" cy="67.55" r="9.7"/>
		<circle fill="#FFFFFF" cx="79.75" cy="67.55" r="9.7"/>
	</g>
</g>
</svg>
