<?xml version="1.0" encoding="utf-8"?>
<svg version="1.1" id="Layer_1" xmlns="http://www.w3.org/2000/svg" xmlns:xlink="http://www.w3.org/1999/xlink" x="0px" y="0px"
	 width="500px" height="500px" viewBox="0 0 500 500" enable-background="new 0 0 500 500" xml:space="preserve">
<g>
	<path fill="#007AC9" d="M488.655,395.221c0,51.613-41.821,93.435-93.435,93.435H104.784c-51.595,0-93.44-41.821-93.44-93.435
		V104.792c0-51.595,41.846-93.447,93.44-93.447h290.437c51.613,0,93.435,41.852,93.435,93.447V395.221z"/>
	<g>
		<path fill="#FFFFFF" d="M385.354,279.303c12.294-37.304,31.492-119.104,38.734-148.208c6.396-25.745,10.59-35.345-0.971-35.151
			c-9.681,0.168-34.354,2.532-39.469,22.901c-8.498,34.025-28.816,112.391-36.257,137.288c-8.188,27.375-25.595,33.1-47.521,33.299
			c-19.087,0.137-29.589-1.331-29.589-15.864c-6.097-0.125-15.491-0.051-19.809-0.024c-4.306-0.025-13.701-0.101-19.798,0.024
			c0,15.292-10.501,15.864-29.602,15.864c-14.185,0-35.724-2.649-43.587-28.655c-5.5-18.13-19.237-65.052-26.267-89.838
			c-7.08-24.774-29.247-26.18-39.892-26.217c-11.69-0.05-10.764,1.841-4.007,26.217c6.731,24.388,21.527,78.776,31.873,115.221
			c10.372,36.435,45.883,48.315,68.554,48.315c19.473,0,20.17,0,38.287,0c17.396,0,23.505-7.453,24.438-9.817
			c0.933,2.364,7.651,9.817,25.034,9.817c18.154,0,17.656,0,37.117,0C344.168,334.475,373.521,315.312,385.354,279.303z"/>
		<path fill="#FFFFFF" d="M192.415,184.674c10.017,0,18.13-8.125,18.13-18.117c0-10.029-8.113-18.154-18.13-18.154
			c-10.029,0-18.129,8.125-18.129,18.154C174.285,176.549,182.385,184.674,192.415,184.674z"/>
		<path fill="#FFFFFF" d="M251.344,184.674c10.004,0,18.154-8.125,18.154-18.117c0-10.029-8.15-18.154-18.154-18.154
			c-10.004,0-18.129,8.125-18.129,18.154C233.214,176.549,241.339,184.674,251.344,184.674z"/>
		<path fill="#FFFFFF" d="M311.045,184.674c9.992,0,18.143-8.125,18.143-18.117c0-10.029-8.148-18.154-18.143-18.154
			c-10.017,0-18.129,8.125-18.129,18.154C292.916,176.549,301.028,184.674,311.045,184.674z"/>
		<path fill="#FFFFFF" d="M192.415,250c10.017,0,18.13-8.125,18.13-18.129c0-10.017-8.113-18.143-18.13-18.143
			c-10.029,0-18.129,8.125-18.129,18.143C174.285,241.875,182.385,250,192.415,250z"/>
		<path fill="#FFFFFF" d="M251.344,250c10.004,0,18.154-8.125,18.154-18.129c0-10.017-8.15-18.143-18.154-18.143
			c-10.004,0-18.129,8.125-18.129,18.143C233.214,241.875,241.339,250,251.344,250z"/>
		<path fill="#FFFFFF" d="M311.045,250c9.992,0,18.143-8.125,18.143-18.129c0-10.017-8.148-18.143-18.143-18.143
			c-10.017,0-18.129,8.125-18.129,18.143C292.916,241.875,301.028,250,311.045,250z"/>
		<path fill="#FFFFFF" d="M107.317,344.441c-20.046,0-36.34,16.312-36.34,36.384c0,20.058,16.294,36.321,36.34,36.321
			c20.095,0,36.358-16.264,36.358-36.321C143.675,360.756,127.413,344.441,107.317,344.441z M107.317,393.865
			c-7.18,0-13.028-5.836-13.028-13.04c0-7.205,5.848-13.04,13.028-13.04c7.204,0,13.046,5.835,13.046,13.04
			C120.363,388.029,114.521,393.865,107.317,393.865z"/>
		<path fill="#FFFFFF" d="M394.051,344.006c-20.069,0-36.369,16.289-36.369,36.348c0,20.045,16.3,36.383,36.369,36.383
			c20.07,0,36.347-16.338,36.347-36.383C430.397,360.295,414.123,344.006,394.051,344.006z M394.051,393.393
			c-7.191,0-13.039-5.836-13.039-13.04c0-7.205,5.848-13.041,13.039-13.041c7.192,0,13.041,5.836,13.041,13.041
			C407.092,387.557,401.244,393.393,394.051,393.393z"/>
	</g>
</g>
</svg>
