<?xml version="1.0" encoding="utf-8"?>
<!-- Generator: Adobe Illustrator 15.1.0, SVG Export Plug-In . SVG Version: 6.00 Build 0)  -->
<!DOCTYPE svg PUBLIC "-//W3C//DTD SVG 1.0//EN" "http://www.w3.org/TR/2001/REC-SVG-20010904/DTD/svg10.dtd">
<svg version="1.0" id="Layer_1" xmlns="http://www.w3.org/2000/svg" xmlns:xlink="http://www.w3.org/1999/xlink" x="0px" y="0px"
	 width="102px" height="68px" viewBox="0 0 102 68" enable-background="new 0 0 102 68" xml:space="preserve">
<path fill="#CDCDCD" d="M29,1H3C2.005,1,1,1.99,1,3v27c0,1.012,1.006,2,2,2h26c0.995,0,2-0.988,2-2V3C31,1.99,29.995,1,29,1z M22,29
	c0,0.929,0.017,1-1,1H11c-1.016,0-1-0.071-1-1v-3c0-0.929-0.016-1,1-1h10c1.017,0,1,0.071,1,1V29z"/>
<path fill="#CDCDCD" d="M64.199,1h-26.4C36.806,1,36,1.82,36,2.83v27.34c0,1.012,0.807,1.83,1.8,1.83h26.4
	C65.193,32,66,31.182,66,30.17V2.83C66,1.82,65.193,1,64.199,1z M57,28.317C57,29.246,56.177,30,55.16,30h-8.322
	C45.822,30,45,29.246,45,28.317v-1.636c0-0.929,0.823-1.682,1.839-1.682h8.322c1.017,0,1.84,0.753,1.84,1.682V28.317z"/>
<path fill="#CDCDCD" d="M99.199,1H72.801C71.807,1,71,1.82,71,2.83v27.34c0,1.012,0.807,1.83,1.801,1.83h26.398
	c0.994,0,1.801-0.818,1.801-1.83V2.83C101,1.82,100.193,1,99.199,1z M92,28.317C92,29.246,91.177,30,90.16,30h-8.322
	C80.822,30,80,29.246,80,28.317v-1.636c0-0.929,0.822-1.682,1.838-1.682h8.322c1.017,0,1.84,0.753,1.84,1.682V28.317z"/>
<path fill="#CDCDCD" d="M29.2,36h-26.4C1.806,36,1,36.82,1,37.83V64c0,1.012,0.807,1.83,1.8,1.83h26.399c0.995,0,1.8-0.818,1.8-1.83
	V37.83C31,36.82,30.193,36,29.2,36z M22,62.146c0,0.93-0.823,1.684-1.84,1.684h-8.321c-1.016,0-1.839-0.754-1.839-1.684v-1.636
	c0-0.929,0.823-1.682,1.839-1.682h8.321c1.017,0,1.84,0.753,1.84,1.682V62.146z"/>
<path fill="#CDCDCD" d="M64.199,36h-26.4c-0.994,0-1.8,0.82-1.8,1.83V64c0,1.012,0.807,1.83,1.8,1.83h26.4
	C65.193,65.83,66,65.012,66,64V37.83C66,36.82,65.193,36,64.199,36z M57,62.146c0,0.93-0.823,1.684-1.84,1.684h-8.322
	c-1.016,0-1.839-0.754-1.839-1.684v-1.636c0-0.929,0.823-1.682,1.839-1.682h8.322c1.017,0,1.84,0.753,1.84,1.682V62.146z"/>
<path fill="#CDCDCD" d="M99.199,36H72.801C71.807,36,71,36.82,71,37.83V64c0,1.012,0.807,1.83,1.801,1.83h26.398
	c0.994,0,1.801-0.818,1.801-1.83V37.83C101,36.82,100.193,36,99.199,36z M92,62.146c0,0.93-0.823,1.684-1.84,1.684h-8.322
	c-1.016,0-1.838-0.754-1.838-1.684v-1.636c0-0.929,0.822-1.682,1.838-1.682h8.322c1.017,0,1.84,0.753,1.84,1.682V62.146z"/>
</svg>
