<?xml version="1.0" encoding="utf-8"?>
<!-- Generator: Adobe Illustrator 15.1.0, SVG Export Plug-In . SVG Version: 6.00 Build 0)  -->
<!DOCTYPE svg PUBLIC "-//W3C//DTD SVG 1.0//EN" "http://www.w3.org/TR/2001/REC-SVG-20010904/DTD/svg10.dtd">
<svg version="1.0" id="Layer_1" xmlns="http://www.w3.org/2000/svg" xmlns:xlink="http://www.w3.org/1999/xlink" x="0px" y="0px"
	 width="102px" height="68px" viewBox="0 0 102 68" enable-background="new 0 0 102 68" xml:space="preserve">
<path fill="#CDCDCD" d="M99.572,1H2.427C1.639,1,1,1.638,1,2.425v17.149C1,20.361,1.639,21,2.427,21h97.146
	c0.788,0,1.427-0.639,1.427-1.426V2.425C101,1.638,100.361,1,99.572,1z M22,10h38v2H22V10z M18,16c0,1.012-1.005,2-2,2H6
	c-0.994,0-2-0.988-2-2V6c0-1.01,1.006-2,2-2h10c0.995,0,2,0.99,2,2V16z M65,17H22v-2h43V17z M72,7H22V5h50V7z"/>
<path fill="#CDCDCD" d="M99.572,24H2.427C1.639,24,1,24.638,1,25.425v17.149C1,43.361,1.639,44,2.427,44h97.146
	c0.788,0,1.427-0.639,1.427-1.426V25.425C101,24.638,100.361,24,99.572,24z M22,33h38v2H22V33z M18,39c0,1.012-1.005,2-2,2H6
	c-0.994,0-2-0.988-2-2V29c0-1.01,1.006-2,2-2h10c0.995,0,2,0.99,2,2V39z M65,40H22v-2h43V40z M72,30H22v-2h50V30z"/>
<path fill="#CDCDCD" d="M99.572,47H2.427C1.639,47,1,47.639,1,48.425v17.149C1,66.361,1.639,67,2.427,67h97.146
	c0.788,0,1.427-0.639,1.427-1.426V48.425C101,47.639,100.361,47,99.572,47z M22,56h38v2H22V56z M18,62c0,1.012-1.005,2-2,2H6
	c-0.994,0-2-0.988-2-2V52c0-1.01,1.006-2,2-2h10c0.995,0,2,0.99,2,2V62z M65,63H22v-2h43V63z M72,53H22v-2h50V53z"/>
</svg>
