<?xml version="1.0" encoding="utf-8"?>
<!-- Generator: Adobe Illustrator 18.0.0, SVG Export Plug-In . SVG Version: 6.00 Build 0)  -->
<!DOCTYPE svg PUBLIC "-//W3C//DTD SVG 1.1//EN" "http://www.w3.org/Graphics/SVG/1.1/DTD/svg11.dtd">
<svg version="1.1" id="Layer_1" xmlns="http://www.w3.org/2000/svg" xmlns:xlink="http://www.w3.org/1999/xlink" x="0px" y="0px"
	 viewBox="0 0 143 168" enable-background="new 0 0 143 168" xml:space="preserve">
<g>
	<path fill="#D1ECF5" d="M115.2,8.9c0.8,0,1.5-0.6,1.5-1.4c0-3.7,0.6-4.6,4.3-4.6c3.7,0,4.3,0.9,4.3,4.6c0,0.8,0.7,1.4,1.5,1.4
		c0.8,0,1.4-0.6,1.4-1.4c0-2.3,0.1-7.5-7.2-7.5c-7.3,0-7.2,5.2-7.2,7.5C113.9,8.3,114.4,8.9,115.2,8.9z"/>
	<path fill="#D1ECF5" d="M139.7,33.2l-4.6-21.9c-0.1-0.6-0.6-1.1-1.2-1.1h-25.6c-0.6,0-1.2,0.5-1.2,1.1l-4.6,21.9
		c-0.1,1,0.4,1.8,1.2,1.8h34.9C139.3,35,139.8,34.2,139.7,33.2z M114.6,16c-1.2,0-2.2-1-2.2-2.2s1-2.2,2.2-2.2s2.2,1,2.2,2.2
		S115.8,16,114.6,16z M127.6,16c-1.2,0-2.2-1-2.2-2.2s1-2.2,2.2-2.2c1.2,0,2.2,1,2.2,2.2S128.8,16,127.6,16z"/>
</g>
</svg>
