<?xml version="1.0" encoding="utf-8"?>
<!-- Generator: Adobe Illustrator 18.0.0, SVG Export Plug-In . SVG Version: 6.00 Build 0)  -->
<!DOCTYPE svg PUBLIC "-//W3C//DTD SVG 1.1//EN" "http://www.w3.org/Graphics/SVG/1.1/DTD/svg11.dtd">
<svg version="1.1" id="Layer_1" xmlns="http://www.w3.org/2000/svg" xmlns:xlink="http://www.w3.org/1999/xlink" x="0px" y="0px"
	 viewBox="0 0 143 168" enable-background="new 0 0 143 168" xml:space="preserve">
<path fill="#D1ECF5" d="M40.1,72H2.9C1.4,72,0,73.4,0,74.9v39.2c0,1.5,1.4,2.9,2.9,2.9h37.3c1.4,0,2.9-1.4,2.9-2.9V74.9
	C43,73.4,41.6,72,40.1,72z M30.1,112.6c0,1.3,0,1.5-1.4,1.5H14.3c-1.5,0-1.4-0.1-1.4-1.5v-4.4c0-1.3,0-1.5,1.4-1.5h14.3
	c1.5,0,1.4,0.1,1.4,1.5V112.6z"/>
<path fill="#D1ECF5" d="M90.1,72H52.9c-1.4,0-2.9,1.4-2.9,2.9v39.2c0,1.5,1.4,2.9,2.9,2.9h37.3c1.4,0,2.9-1.4,2.9-2.9V74.9
	C93,73.4,91.6,72,90.1,72z M80.1,112.6c0,1.3,0,1.5-1.4,1.5H64.3c-1.5,0-1.4-0.1-1.4-1.5v-4.4c0-1.3,0-1.5,1.4-1.5h14.3
	c1.5,0,1.4,0.1,1.4,1.5V112.6z"/>
<path fill="#D1ECF5" d="M140.1,72h-37.3c-1.4,0-2.9,1.4-2.9,2.9v39.2c0,1.5,1.4,2.9,2.9,2.9h37.3c1.4,0,2.9-1.4,2.9-2.9V74.9
	C143,73.4,141.6,72,140.1,72z M130.1,112.6c0,1.3,0,1.5-1.4,1.5h-14.3c-1.5,0-1.4-0.1-1.4-1.5v-4.4c0-1.3,0-1.5,1.4-1.5h14.3
	c1.5,0,1.4,0.1,1.4,1.5V112.6z"/>
<path fill="#D1ECF5" d="M40.1,123H2.9c-1.4,0-2.9,1.4-2.9,2.9v39.2c0,1.5,1.4,2.9,2.9,2.9h37.3c1.4,0,2.9-1.4,2.9-2.9v-39.2
	C43,124.4,41.6,123,40.1,123z M30.1,163.6c0,1.3,0,1.5-1.4,1.5H14.3c-1.5,0-1.4-0.1-1.4-1.5v-4.4c0-1.3,0-1.5,1.4-1.5h14.3
	c1.5,0,1.4,0.1,1.4,1.5V163.6z"/>
<path fill="#D1ECF5" d="M90.1,123H52.9c-1.4,0-2.9,1.4-2.9,2.9v39.2c0,1.5,1.4,2.9,2.9,2.9h37.3c1.4,0,2.9-1.4,2.9-2.9v-39.2
	C93,124.4,91.6,123,90.1,123z M80.1,163.6c0,1.3,0,1.5-1.4,1.5H64.3c-1.5,0-1.4-0.1-1.4-1.5v-4.4c0-1.3,0-1.5,1.4-1.5h14.3
	c1.5,0,1.4,0.1,1.4,1.5V163.6z"/>
<path fill="#D1ECF5" d="M140.1,123h-37.3c-1.4,0-2.9,1.4-2.9,2.9v39.2c0,1.5,1.4,2.9,2.9,2.9h37.3c1.4,0,2.9-1.4,2.9-2.9v-39.2
	C143,124.4,141.6,123,140.1,123z M130.1,163.6c0,1.3,0,1.5-1.4,1.5h-14.3c-1.5,0-1.4-0.1-1.4-1.5v-4.4c0-1.3,0-1.5,1.4-1.5h14.3
	c1.5,0,1.4,0.1,1.4,1.5V163.6z"/>
</svg>
