<?xml version="1.0" encoding="utf-8"?>
<!-- Generator: Adobe Illustrator 18.0.0, SVG Export Plug-In . SVG Version: 6.00 Build 0)  -->
<!DOCTYPE svg PUBLIC "-//W3C//DTD SVG 1.1//EN" "http://www.w3.org/Graphics/SVG/1.1/DTD/svg11.dtd">
<svg version="1.1" id="Layer_1" xmlns="http://www.w3.org/2000/svg" xmlns:xlink="http://www.w3.org/1999/xlink" x="0px" y="0px"
	 viewBox="0 0 143 168" enable-background="new 0 0 143 168" xml:space="preserve">
<path fill="#D1ECF5" d="M38.2,31.3c0.5,0.5,0.8,1.2,0.8,1.9c0,0.7-0.3,1.4-0.8,1.9C37.6,35.7,37,36,36.3,36c-0.8,0-1.4-0.3-1.9-0.8
	L27,27.9c-2.5,1.8-5.4,2.6-8.5,2.6c-2,0-4-0.4-5.8-1.2c-1.9-0.8-3.5-1.9-4.8-3.2c-1.3-1.3-2.4-2.9-3.2-4.8c-0.8-1.9-1.2-3.8-1.2-5.8
	s0.4-4,1.2-5.8c0.8-1.9,1.9-3.5,3.2-4.8c1.3-1.3,2.9-2.4,4.8-3.2c1.9-0.8,3.8-1.2,5.8-1.2s4,0.4,5.8,1.2c1.9,0.8,3.5,1.9,4.8,3.2
	c1.3,1.3,2.4,2.9,3.2,4.8c0.8,1.9,1.2,3.8,1.2,5.8c0,3.1-0.9,6-2.6,8.5L38.2,31.3L38.2,31.3z M25.3,22.3c1.9-1.9,2.8-4.1,2.8-6.8
	c0-2.6-0.9-4.9-2.8-6.8c-1.9-1.9-4.1-2.8-6.8-2.8c-2.6,0-4.9,0.9-6.8,2.8c-1.9,1.9-2.8,4.1-2.8,6.8c0,2.6,0.9,4.9,2.8,6.8
	c1.9,1.9,4.1,2.8,6.8,2.8C21.1,25.1,23.4,24.1,25.3,22.3z"/>
</svg>
