<?xml version="1.0" encoding="utf-8"?>
<!-- Generator: Adobe Illustrator 18.0.0, SVG Export Plug-In . SVG Version: 6.00 Build 0)  -->
<!DOCTYPE svg PUBLIC "-//W3C//DTD SVG 1.1//EN" "http://www.w3.org/Graphics/SVG/1.1/DTD/svg11.dtd">
<svg version="1.1" id="Layer_1" xmlns="http://www.w3.org/2000/svg" xmlns:xlink="http://www.w3.org/1999/xlink" x="0px" y="0px"
	 viewBox="0 0 26 26" enable-background="new 0 0 26 26" xml:space="preserve">
<path fill="#333333" d="M20.39,25c-0.17,0-0.34-0.04-0.49-0.12L13,21.37l-6.9,3.51C5.75,25.06,5.32,25.03,5,24.8
	c-0.32-0.23-0.49-0.61-0.42-1l1.32-7.44l-5.58-5.27c-0.29-0.27-0.39-0.67-0.27-1.04C0.18,9.7,0.5,9.43,0.9,9.37l7.71-1.09l3.45-6.77
	c0.35-0.69,1.53-0.69,1.88,0l3.45,6.77l7.71,1.08c0.4,0.06,0.72,0.32,0.85,0.69c0.12,0.37,0.02,0.77-0.27,1.04l-5.58,5.27l1.28,7.24
	c0.05,0.11,0.07,0.24,0.07,0.37c0,0.56-0.47,1.02-1.05,1.02C20.4,25,20.39,25,20.39,25z"/>
</svg>
