<?xml version="1.0" encoding="utf-8"?>
<!-- Generator: Adobe Illustrator 18.0.0, SVG Export Plug-In . SVG Version: 6.00 Build 0)  -->
<!DOCTYPE svg PUBLIC "-//W3C//DTD SVG 1.1//EN" "http://www.w3.org/Graphics/SVG/1.1/DTD/svg11.dtd">
<svg version="1.1" id="Layer_1" xmlns="http://www.w3.org/2000/svg" xmlns:xlink="http://www.w3.org/1999/xlink" x="0px" y="0px"
	 viewBox="0 0 26 26" enable-background="new 0 0 26 26" xml:space="preserve">
<g>
	<path fill="#434343" d="M0.1,24.6c0-0.3,0.2-0.5,0.5-0.5h24.9c0.3,0,0.5,0.2,0.5,0.5v1c0,0.3-0.2,0.5-0.5,0.5H0.6
		c-0.3,0-0.5-0.2-0.5-0.5V24.6z"/>
	<path fill="#434343" d="M26,9c-1-2-1.4-3.9-2-7.2C24,1.6,23.6,1,23,1H3C2.4,1,2,1.6,2,1.8C2,1.8,1,8,0,9c0,1,0,3,0,3s0,0,0,0.1h0
		c0,0,0.1,0.5,0.7,0.8C0.8,12.9,0.9,13,1,13v0v9C1,22.6,1.6,23,2.1,23H10v-8.3c0-0.6,0.5-1,1.1-1h4c0.5,0,1,0.4,1,1V23h8
		c0.5,0,1-0.4,1-0.9v-9v0c0.8-0.1,1-0.9,1-0.9h0c0,0,0-0.1,0-0.1S26,10,26,9z M7.8,19c0,0.5-0.2,1-0.8,1H5c-0.5,0-0.8-0.5-0.8-1v-4
		c0-0.6,0.3-1,0.8-1H7c0.6,0,0.8,0.4,0.8,1V19z M21.8,19c0,0.5-0.2,1-0.8,1h-2c-0.5,0-0.8-0.5-0.8-1v-4c0-0.6,0.3-1,0.8-1h2
		c0.5,0,0.8,0.4,0.8,1V19z M22,2.8c0,0,1.1,5.1,1.7,6.2c-1,0-2.7,0-2.7,0l-1-6.2H22z M23.8,10l0,0.8c-0.1,0.7-0.7,1.2-1.4,1.2
		c-0.8,0-1.4-0.5-1.4-1.2c0,0,0-0.8,0-0.8H23.8z M16.3,10.5l0-0.5h2.8l0,0.8C19,11.5,18.4,12,17.7,12C16.9,12,16.3,11.4,16.3,10.5
		C16.3,10.6,16.3,10.5,16.3,10.5L16.3,10.5z M18,2.8c0,0,0.8,4.9,1.1,6.2c0.3,0-2.8,0-2.8,0L16,2.8H18z M12,2.8h2L14.4,9h-2.7
		L12,2.8z M11.6,10h2.8l0,0.7C14.3,11.4,13.7,12,13,12c-0.7,0-1.3-0.6-1.4-1.3L11.6,10z M8,2.8h2L9.7,9c0,0-2,0-2.7,0
		C7.3,7.9,8,2.8,8,2.8z M6.9,10h2.8l0,0.5h0c0,0,0,0,0,0.1c0,0.8-0.6,1.4-1.4,1.4c-0.7,0-1.3-0.5-1.4-1.2L6.9,10z M4,2.8h2L5.1,9
		c0,0-2,0-2.7,0C3.2,7.6,4,2.8,4,2.8z M2.2,10H5c0,0,0,0.6,0,0.6C5,11.4,4.4,12,3.6,12c-0.7,0-1.3-0.5-1.4-1.2L2.2,10z"/>
</g>
</svg>
