<?xml version="1.0" encoding="utf-8"?>
<!-- Generator: Adobe Illustrator 15.1.0, SVG Export Plug-In . SVG Version: 6.00 Build 0)  -->
<!DOCTYPE svg PUBLIC "-//W3C//DTD SVG 1.0//EN" "http://www.w3.org/TR/2001/REC-SVG-20010904/DTD/svg10.dtd">
<svg version="1.0" id="Layer_1" xmlns="http://www.w3.org/2000/svg" xmlns:xlink="http://www.w3.org/1999/xlink" x="0px" y="0px"
	 width="102px" height="68px" viewBox="0 0 102 68" enable-background="new 0 0 102 68" xml:space="preserve">
<g>
	<rect x="1.5" y="3" fill="#CDCDCD" width="30" height="6"/>
	<rect x="33.5" y="3" fill="#CDCDCD" width="33" height="6"/>
	<rect x="68.5" y="3" fill="#CDCDCD" width="32" height="6"/>
	<rect x="33.5" y="11" fill="#CDCDCD" width="33" height="6"/>
	<rect x="1.5" y="11" fill="#CDCDCD" width="30" height="6"/>
	<rect x="68.5" y="11" fill="#CDCDCD" width="32" height="6"/>
	<rect x="68.5" y="19" fill="#CDCDCD" width="32" height="6"/>
	<rect x="1.5" y="19" fill="#CDCDCD" width="30" height="6"/>
	<rect x="33.5" y="19" fill="#CDCDCD" width="33" height="6"/>
	<rect x="1.5" y="27" fill="#CDCDCD" width="30" height="6"/>
	<rect x="33.5" y="27" fill="#CDCDCD" width="33" height="6"/>
	<rect x="68.5" y="27" fill="#CDCDCD" width="32" height="6"/>
	<rect x="68.5" y="35" fill="#CDCDCD" width="32" height="6"/>
	<rect x="1.5" y="35" fill="#CDCDCD" width="30" height="6"/>
	<rect x="33.5" y="35" fill="#CDCDCD" width="33" height="6"/>
	<rect x="1.5" y="43" fill="#CDCDCD" width="30" height="6"/>
	<rect x="68.5" y="43" fill="#CDCDCD" width="32" height="6"/>
	<rect x="33.5" y="43" fill="#CDCDCD" width="33" height="6"/>
	<rect x="1.5" y="51" fill="#CDCDCD" width="30" height="6"/>
	<rect x="68.5" y="51" fill="#CDCDCD" width="32" height="6"/>
	<rect x="33.5" y="51" fill="#CDCDCD" width="33" height="6"/>
	<rect x="1.5" y="59" fill="#CDCDCD" width="30" height="6"/>
	<rect x="33.5" y="59" fill="#CDCDCD" width="33" height="6"/>
	<rect x="68.5" y="59" fill="#CDCDCD" width="32" height="6"/>
</g>
</svg>
