<?xml version="1.0" encoding="utf-8"?>
<!-- Generator: Adobe Illustrator 15.1.0, SVG Export Plug-In . SVG Version: 6.00 Build 0)  -->
<!DOCTYPE svg PUBLIC "-//W3C//DTD SVG 1.1//EN" "http://www.w3.org/Graphics/SVG/1.1/DTD/svg11.dtd">
<svg version="1.1" id="Layer_1" xmlns="http://www.w3.org/2000/svg" xmlns:xlink="http://www.w3.org/1999/xlink" x="0px" y="0px"
	 width="26px" height="26px" viewBox="0 0 26 26" enable-background="new 0 0 26 26" xml:space="preserve">
<g>
	<path fill="#343334" d="M5.835,13c0-3.615,2.683-6.599,6.165-7.087V8l6.399-4L12,0v2.238C6.499,2.743,2.188,7.367,2.188,13
		c0,2.935,1.174,5.593,3.073,7.541l2.695-2.457C6.646,16.785,5.835,14.988,5.835,13z"/>
	<path fill="#343334" d="M23.812,13c0-2.934-1.174-5.591-3.071-7.54l-2.694,2.458c1.307,1.298,2.117,3.095,2.117,5.082
		c0,3.614-2.683,6.596-6.164,7.083V18l-6.4,4l6.4,4v-2.238C19.502,23.257,23.812,18.633,23.812,13z"/>
</g>
</svg>
