<svg xml:space="preserve" enable-background="new 0 0 44 44" viewBox="0 0 44 44" height="25px" width="25px" y="0px" x="0px" id="Layer_1" version="1.1" xmlns:xlink="http://www.w3.org/1999/xlink" xmlns="http://www.w3.org/2000/svg"><path d="M36.3 35.9c-0.4 0.5-0.9 0.8-1.5 0.8c-1.1 0-2-0.9-2-2 c0-0.6 0.3-1.1 0.6-1.4C36.3 30.3 38 26.4 38 22c0-4.4-1.8-8.4-4.7-11.3c-0.4-0.4-0.6-0.8-0.6-1.4c0-1.1 0.9-2 2-2 c0.7 0 1.3 0.4 1.6 0.9c3.4 3.6 5.5 8.4 5.5 13.8C41.9 27.4 39.8 32.3 36.3 35.9z M10.7 10.7C7.8 13.6 6 17.6 6 22 c0 4.4 1.8 8.4 4.7 11.3l0 0c0.3 0.3 0.5 0.8 0.5 1.3c0 1.1-0.9 2-2 2c-0.7 0-1.3-0.4-1.6-0.9C4.2 32.2 2.1 27.3 2.1 22 c0-5.5 2.2-10.5 5.8-14.1l0 0c0.3-0.3 0.8-0.6 1.4-0.6c1.1 0 1.9 0.9 1.9 1.9C11.2 9.9 11 10.3 10.7 10.7L10.7 10.7z" fill="#599ED2" clip-rule="evenodd" fill-rule="evenodd"></path></svg>
